<svg id="Laag_1" data-name="Laag 1" xmlns="http://www.w3.org/2000/svg" xmlns:xlink="http://www.w3.org/1999/xlink" viewBox="0 0 841.89 595.28"><defs><style>.cls-1,.cls-4,.cls-6{fill:none;}.cls-2{clip-path:url(#clip-path);}.cls-3{fill:#a568de;}.cls-4,.cls-6{stroke:#1d1d1b;stroke-miterlimit:10;}.cls-4{stroke-width:4px;}.cls-5{fill:#a368de;}.cls-6{stroke-width:2px;}</style><clipPath id="clip-path"><rect class="cls-1" x="232.39" y="153.78" width="377.1" height="217.31"/></clipPath></defs><title>Tekengebied 5</title><g id="Illustratie_13" data-name="Illustratie 13"><g class="cls-2"><g class="cls-2"><path class="cls-3" d="M264.42,231.8a33.11,33.11,0,0,0-.51,3.34q0,3.86,2.47,3.85t10.69-2.33q8.13-2.32,10.7-3.14,2.25-.6,4.37-8.45t2.93-10.68q1.65-5.77,5.71-21.51t4.06-21.82a15.55,15.55,0,0,0-1.54-5.31q-1.55-3.6-2.06-4.71a4.78,4.78,0,0,0-5-2.18,4.44,4.44,0,0,1-4.83-2c-.35-.74.24-1.11,1.75-1.11a33.49,33.49,0,0,1,12,2.37,37,37,0,0,0,13.47,2.38,52,52,0,0,1,6.22.41,63.48,63.48,0,0,0,7.56.4q2.27,0,7,.41a29.56,29.56,0,0,1,6.43,1c.55.34.64.69.26,1.06a1.88,1.88,0,0,1-1.39.56h-4.52a4.73,4.73,0,0,0-3.71,1.82,5.31,5.31,0,0,0-1.54,2.94q1.65,8,3.34,16a144.72,144.72,0,0,0,4.17,15.49q.61,2.73,2.41,10.63c1.2,5.27,2.18,10,2.94,14.28a82.52,82.52,0,0,0,1.95,9c.75,2.66,1.71,5.55,2.88,8.65,1.1,4.46,2.21,9.31,3.34,14.58l2.52,11.74q.83,4.16,2.21,9a16.61,16.61,0,0,0,4,7.34,53.88,53.88,0,0,0,6.58,5q4.94,3.34,8,3.34a14.29,14.29,0,0,0,4.21-1,10.23,10.23,0,0,1,5.35-.46c.34.41.32,1.44-.05,3.09s-1.12,2.28-2.21,1.87a63.49,63.49,0,0,1-13.22-1.36q-6.42-1.37-13.73-2.18-8.75-.6-10.95-.15c-1.47.3-4.58.79-9.31,1.47q-1.12.3-1.95.45a9.21,9.21,0,0,1-1.65.15c-.41.21-1.45.71-3.13,1.52s-2.52.78-2.52-.1c.41-1.68,1.92-2.9,4.52-3.64s4.84-1.39,6.69-1.93c1.5-.2,2.26-.84,2.26-1.92a31.61,31.61,0,0,0-1.13-8.3c-.76-2.77-1.41-5.26-2-7.49s-1.06-4.93-1.54-7.7-1-5.43-1.54-8q-1.65-5.88-1.8-7.09T331.27,246a19.56,19.56,0,0,0-6.58-3.23,26.14,26.14,0,0,0-8-1.52h-6.59a60.21,60.21,0,0,0-6.37.81,7.36,7.36,0,0,0-4.12,3A101.35,101.35,0,0,0,293.27,260a101.43,101.43,0,0,1-6.33,14.93q-1.74,3.35-5.39,9.31a42.63,42.63,0,0,1-5.92,8.1,79,79,0,0,1-7.81,6.68q-5.35,4.16-9.57,4.15h-4.52a30.85,30.85,0,0,1-12.6-3q-6.74-3-6.74-8.81a8,8,0,0,1,3.4-6.58,11.64,11.64,0,0,1,7.3-2.63c1.1,0,2.16.69,3.19,2.07s1.74,2.38,2.16,3a6.51,6.51,0,0,1-2.88-.56,6.29,6.29,0,0,0-2.78-.56q-6.78,0-6.79,5.77,0,3.35,3.65,3.6c2.44.17,4.24.25,5.4.25q7,0,12.6-5.77a57.16,57.16,0,0,0,9.82-14.07q4.21-8.29,7.61-16.91t5.86-14.07a41.14,41.14,0,0,0-6.83.76,15.4,15.4,0,0,1-6.84-.56,12.45,12.45,0,0,1-5.25-2.58,6.53,6.53,0,0,1-2.67-5.41c0-1.49.85-3.41,2.57-5.77a.45.45,0,0,1,.51.5m68.49,7.8a57.35,57.35,0,0,0-3.49-13.82,48.88,48.88,0,0,1-3.19-14.43q-.62-3.54-3.55-14.47T319.75,181q-1.65.51-3.6,8.71a107.33,107.33,0,0,1-2.88,10.63,55.33,55.33,0,0,0-2.47,8.6,40.91,40.91,0,0,1-1.74,6.58,12.68,12.68,0,0,1-1.24,2.53,6.7,6.7,0,0,0-.92,1.93,27.44,27.44,0,0,0-1.75,5.11c-.55,2.13-.93,3.73-1.13,4.81q-.82,2.84,3,2.28a24.52,24.52,0,0,1,7.2,0q8.64,1.92,10.49,2.78t8.22,4.71"/><path class="cls-4" d="M264.42,231.8a33.11,33.11,0,0,0-.51,3.34q0,3.86,2.47,3.85t10.69-2.33q8.13-2.32,10.7-3.14,2.25-.6,4.37-8.45t2.93-10.68q1.65-5.77,5.71-21.51t4.06-21.82a15.55,15.55,0,0,0-1.54-5.31q-1.55-3.6-2.06-4.71a4.78,4.78,0,0,0-5-2.18,4.44,4.44,0,0,1-4.83-2c-.35-.74.24-1.11,1.75-1.11a33.49,33.49,0,0,1,12,2.37,37,37,0,0,0,13.47,2.38,52,52,0,0,1,6.22.41,63.48,63.48,0,0,0,7.56.4q2.27,0,7,.41a29.56,29.56,0,0,1,6.43,1c.55.34.64.69.26,1.06a1.88,1.88,0,0,1-1.39.56h-4.52a4.73,4.73,0,0,0-3.71,1.82,5.31,5.31,0,0,0-1.54,2.94q1.65,8,3.34,16a144.72,144.72,0,0,0,4.17,15.49q.61,2.73,2.41,10.63c1.2,5.27,2.18,10,2.94,14.28a82.52,82.52,0,0,0,1.95,9c.75,2.66,1.71,5.55,2.88,8.65,1.1,4.46,2.21,9.31,3.34,14.58l2.52,11.74q.83,4.16,2.21,9a16.61,16.61,0,0,0,4,7.34,53.88,53.88,0,0,0,6.58,5q4.94,3.34,8,3.34a14.29,14.29,0,0,0,4.21-1,10.23,10.23,0,0,1,5.35-.46c.34.41.32,1.44-.05,3.09s-1.12,2.28-2.21,1.87a63.49,63.49,0,0,1-13.22-1.36q-6.42-1.37-13.73-2.18-8.75-.6-10.95-.15c-1.47.3-4.58.79-9.31,1.47q-1.12.3-1.95.45a9.21,9.21,0,0,1-1.65.15c-.41.21-1.45.71-3.13,1.52s-2.52.78-2.52-.1c.41-1.68,1.92-2.9,4.52-3.64s4.84-1.39,6.69-1.93c1.5-.2,2.26-.84,2.26-1.92a31.61,31.61,0,0,0-1.13-8.3c-.76-2.77-1.41-5.26-2-7.49s-1.06-4.93-1.54-7.7-1-5.43-1.54-8q-1.65-5.88-1.8-7.09T331.27,246a19.56,19.56,0,0,0-6.58-3.23,26.14,26.14,0,0,0-8-1.52h-6.59a60.21,60.21,0,0,0-6.37.81,7.36,7.36,0,0,0-4.12,3A101.35,101.35,0,0,0,293.27,260a101.43,101.43,0,0,1-6.33,14.93q-1.74,3.35-5.39,9.31a42.63,42.63,0,0,1-5.92,8.1,79,79,0,0,1-7.81,6.68q-5.35,4.16-9.57,4.15h-4.52a30.85,30.85,0,0,1-12.6-3q-6.74-3-6.74-8.81a8,8,0,0,1,3.4-6.58,11.64,11.64,0,0,1,7.3-2.63c1.1,0,2.16.69,3.19,2.07s1.74,2.38,2.16,3a6.51,6.51,0,0,1-2.88-.56,6.29,6.29,0,0,0-2.78-.56q-6.78,0-6.79,5.77,0,3.35,3.65,3.6c2.44.17,4.24.25,5.4.25q7,0,12.6-5.77a57.16,57.16,0,0,0,9.82-14.07q4.21-8.29,7.61-16.91t5.86-14.07a41.14,41.14,0,0,0-6.83.76,15.4,15.4,0,0,1-6.84-.56,12.45,12.45,0,0,1-5.25-2.58,6.53,6.53,0,0,1-2.67-5.41c0-1.49.85-3.41,2.57-5.77A.45.45,0,0,1,264.42,231.8Zm68.49,7.8a57.35,57.35,0,0,0-3.49-13.82,48.88,48.88,0,0,1-3.19-14.43q-.62-3.54-3.55-14.47T319.75,181q-1.65.51-3.6,8.71a107.33,107.33,0,0,1-2.88,10.63,55.33,55.33,0,0,0-2.47,8.6,40.91,40.91,0,0,1-1.74,6.58,12.68,12.68,0,0,1-1.24,2.53,6.7,6.7,0,0,0-.92,1.93,27.44,27.44,0,0,0-1.75,5.11c-.55,2.13-.93,3.73-1.13,4.81q-.82,2.84,3,2.28a24.52,24.52,0,0,1,7.2,0q8.64,1.92,10.49,2.78T332.91,239.6Z"/><path class="cls-3" d="M379.91,200.32a10.66,10.66,0,0,0,2.68-1.93,4.79,4.79,0,0,1,3.29-1.41h.3a33.81,33.81,0,0,1,11.16,2.07,32,32,0,0,0,11.78,1.88l5.35-.31c.61,0,.92.14.92.41s-.31.4-.92.4c-2.82,0-4.29.85-4.43,2.53-.2,1.08-.55,2.55-1,4.41s-.79,3.22-.93,4.1a37.79,37.79,0,0,0-.87,4.86,42.14,42.14,0,0,0-.26,4.85,38.81,38.81,0,0,1-.46,5.12,36.56,36.56,0,0,0-.47,4.81,21.61,21.61,0,0,0-.36,5.41c.11,1.92.16,3.53.16,4.81l-2.57,23.28q-.31,2.43,2.52,3.8t4.47,2.28a20.43,20.43,0,0,0,4.52,1.62,21.54,21.54,0,0,0,5.35.81h2a9.61,9.61,0,0,0,4.52-.81,2.8,2.8,0,0,0,1.49-2.08c.11-.84,1-1.16,2.73-1q.82.3-2.88,5.57a5.27,5.27,0,0,1-3.19,1.21,28.71,28.71,0,0,0-3.5.41,22.2,22.2,0,0,0-6.78,2.23q-1.65.81-7,.81c-.75-.54-2.76-1-6-1.37a34.62,34.62,0,0,1-7.15-1.37c-1-.2-2.2-.44-3.7-.71a22.11,22.11,0,0,1-3.09-.7,17.79,17.79,0,0,0-6.68-1.12c-.41,0-.62-.13-.62-.4s.27-.51.82-.71a6.16,6.16,0,0,1,1.91-.31,3.6,3.6,0,0,0,2.1-.81c.14-.13.45-.43.93-.91l1.54-1.52c1.3-1.28,2-3.5,2-6.68q0-.81.3-.81c.35-.33.62-.6.83-.81a5.81,5.81,0,0,0,.46-3.19,9.87,9.87,0,0,1,.36-3.69c.21-1.35.41-2.75.62-4.2a34.17,34.17,0,0,1,.82-4.1c.55-2.43,1.11-4.93,1.7-7.49a41.78,41.78,0,0,0,.87-9.11q0-3.35-.15-9.27a41.11,41.11,0,0,0-1-9,17.66,17.66,0,0,1-.72-4.35,39.07,39.07,0,0,0-.41-4.25c-.41-1.69-1-2.7-1.75-3a7.06,7.06,0,0,0-3.29-1.42h-.93a9.19,9.19,0,0,0-2.77.61,23,23,0,0,1-4.22,1.32h-.82q0-.81.51-.81"/><path class="cls-4" d="M379.91,200.32a10.66,10.66,0,0,0,2.68-1.93,4.79,4.79,0,0,1,3.29-1.41h.3a33.81,33.81,0,0,1,11.16,2.07,32,32,0,0,0,11.78,1.88l5.35-.31c.61,0,.92.14.92.41s-.31.4-.92.4c-2.82,0-4.29.85-4.43,2.53-.2,1.08-.55,2.55-1,4.41s-.79,3.22-.93,4.1a37.79,37.79,0,0,0-.87,4.86,42.14,42.14,0,0,0-.26,4.85,38.81,38.81,0,0,1-.46,5.12,36.56,36.56,0,0,0-.47,4.81,21.61,21.61,0,0,0-.36,5.41c.11,1.92.16,3.53.16,4.81l-2.57,23.28q-.31,2.43,2.52,3.8t4.47,2.28a20.43,20.43,0,0,0,4.52,1.62,21.54,21.54,0,0,0,5.35.81h2a9.61,9.61,0,0,0,4.52-.81,2.8,2.8,0,0,0,1.49-2.08c.11-.84,1-1.16,2.73-1q.82.3-2.88,5.57a5.27,5.27,0,0,1-3.19,1.21,28.71,28.71,0,0,0-3.5.41,22.2,22.2,0,0,0-6.78,2.23q-1.65.81-7,.81c-.75-.54-2.76-1-6-1.37a34.62,34.62,0,0,1-7.15-1.37c-1-.2-2.2-.44-3.7-.71a22.11,22.11,0,0,1-3.09-.7,17.79,17.79,0,0,0-6.68-1.12c-.41,0-.62-.13-.62-.4s.27-.51.82-.71a6.16,6.16,0,0,1,1.91-.31,3.6,3.6,0,0,0,2.1-.81c.14-.13.45-.43.93-.91l1.54-1.52c1.3-1.28,2-3.5,2-6.68q0-.81.3-.81c.35-.33.62-.6.83-.81a5.81,5.81,0,0,0,.46-3.19,9.87,9.87,0,0,1,.36-3.69c.21-1.35.41-2.75.62-4.2a34.17,34.17,0,0,1,.82-4.1c.55-2.43,1.11-4.93,1.7-7.49a41.78,41.78,0,0,0,.87-9.11q0-3.35-.15-9.27a41.11,41.11,0,0,0-1-9,17.66,17.66,0,0,1-.72-4.35,39.07,39.07,0,0,0-.41-4.25c-.41-1.69-1-2.7-1.75-3a7.06,7.06,0,0,0-3.29-1.42h-.93a9.19,9.19,0,0,0-2.77.61,23,23,0,0,1-4.22,1.32h-.82Q379.4,200.32,379.91,200.32Z"/><path class="cls-3" d="M447.17,257.82v-5.21a22.47,22.47,0,0,1,.62-5.32,23.87,23.87,0,0,0,.15-5c-.1-2.23-.15-4.05-.15-5.47a34,34,0,0,0-.41-5.16,32.06,32.06,0,0,1-.42-5.06q0-.91-.15-2.43c-.1-1-.16-1.89-.16-2.63a7.37,7.37,0,0,1-.15-2.63c.1-1,.15-2,.15-2.84a18,18,0,0,1-.46-5.26c.1-1.83.16-3.58.16-5.27-.21-1.28-.5-2-.88-2.22a7.72,7.72,0,0,1-1.59-1.42,9.77,9.77,0,0,0-5.35-1.32,19.82,19.82,0,0,0-2.83.26c-1.13.16-1.69-.29-1.69-1.37,0-.54.65-.91,1.95-1.12s2.33-.37,3.08-.5c1.86-.2,4.77-.3,8.75-.3a22.42,22.42,0,0,1,6.42,1.11,25.22,25.22,0,0,0,7.36,1.11l7.81-.3a24.38,24.38,0,0,1,2.78.25c1.3.17,1.95.46,1.95.86s-.87.81-2.62.81h-3.55a22.93,22.93,0,0,0-2.52.86,6.38,6.38,0,0,1-2.21.56q-2.77,1.32-2.77,5.62V215a39.06,39.06,0,0,0,.41,5.62,43.24,43.24,0,0,1,.41,6v12.15a37.54,37.54,0,0,0,.41,5.87c.27,1.75.51,3.58.72,5.47a14.59,14.59,0,0,0,.26,2.88,13.12,13.12,0,0,1,.25,2.58v9.11q0,5.88,3.4,8.61a12.94,12.94,0,0,0,4.78,2.17,8.07,8.07,0,0,1,4.16,2.28q.93,1.62-6.84.41c-5.17-.81-8.14-1.32-8.89-1.52a19.64,19.64,0,0,1-4.16-1.11,29.15,29.15,0,0,0-6.74-1.42,61.67,61.67,0,0,0-10.7,1.11c-1.64.54-2.47.64-2.47.31.14-.75,1-1.32,2.47-1.73a7.21,7.21,0,0,0,3.4-.81q4.51-2.73,5-5a57.47,57.47,0,0,0,.82-10.22"/><path class="cls-4" d="M447.17,257.82v-5.21a22.47,22.47,0,0,1,.62-5.32,23.87,23.87,0,0,0,.15-5c-.1-2.23-.15-4.05-.15-5.47a34,34,0,0,0-.41-5.16,32.06,32.06,0,0,1-.42-5.06q0-.91-.15-2.43c-.1-1-.16-1.89-.16-2.63a7.37,7.37,0,0,1-.15-2.63c.1-1,.15-2,.15-2.84a18,18,0,0,1-.46-5.26c.1-1.83.16-3.58.16-5.27-.21-1.28-.5-2-.88-2.22a7.72,7.72,0,0,1-1.59-1.42,9.77,9.77,0,0,0-5.35-1.32,19.82,19.82,0,0,0-2.83.26c-1.13.16-1.69-.29-1.69-1.37,0-.54.65-.91,1.95-1.12s2.33-.37,3.08-.5c1.86-.2,4.77-.3,8.75-.3a22.42,22.42,0,0,1,6.42,1.11,25.22,25.22,0,0,0,7.36,1.11l7.81-.3a24.38,24.38,0,0,1,2.78.25c1.3.17,1.95.46,1.95.86s-.87.81-2.62.81h-3.55a22.93,22.93,0,0,0-2.52.86,6.38,6.38,0,0,1-2.21.56q-2.77,1.32-2.77,5.62V215a39.06,39.06,0,0,0,.41,5.62,43.24,43.24,0,0,1,.41,6v12.15a37.54,37.54,0,0,0,.41,5.87c.27,1.75.51,3.58.72,5.47a14.59,14.59,0,0,0,.26,2.88,13.12,13.12,0,0,1,.25,2.58v9.11q0,5.88,3.4,8.61a12.94,12.94,0,0,0,4.78,2.17,8.07,8.07,0,0,1,4.16,2.28q.93,1.62-6.84.41c-5.17-.81-8.14-1.32-8.89-1.52a19.64,19.64,0,0,1-4.16-1.11,29.15,29.15,0,0,0-6.74-1.42,61.67,61.67,0,0,0-10.7,1.11c-1.64.54-2.47.64-2.47.31.14-.75,1-1.32,2.47-1.73a7.21,7.21,0,0,0,3.4-.81q4.51-2.73,5-5A57.47,57.47,0,0,0,447.17,257.82Z"/><path class="cls-3" d="M517.41,207a62.18,62.18,0,0,0,6.32-.3,10.35,10.35,0,0,0,5.71-2.74,15.9,15.9,0,0,0,3-3.64c1.41-2,2.39-3,2.94-3,.75,0,1.13.27,1.13.81a12.22,12.22,0,0,1-1.44,5.42,15,15,0,0,0-1.65,5.41c-.75,3.65-.75,6.58,0,8.81,0,.2.17,1.11.52,2.73,0,.75-.28,1.12-.83,1.12a3.18,3.18,0,0,1-2.26-1.22,15.7,15.7,0,0,0-2-1.82,8,8,0,0,0-5.87-2.23,9.61,9.61,0,0,0-5.09,1.57,9.49,9.49,0,0,1-5.09,1.57,21.46,21.46,0,0,0-5,1.92,26.7,26.7,0,0,0-4.47,6c-1.34,2.39-2.45,4.54-3.34,6.43a12.37,12.37,0,0,0-1,5.46c-.07,2.57-.1,4.69-.1,6.38a40.69,40.69,0,0,0,.51,6.08,15.31,15.31,0,0,0,.31,3.13c.21,1,.38,1.89.51,2.64,0,1.48.19,2.41.57,2.78a9.94,9.94,0,0,1,1.39,2q1.44,3,3,3.85l4.32,2.23a17.79,17.79,0,0,0,4.42,2.22,23.13,23.13,0,0,1,4.63,2.23,14.26,14.26,0,0,0,2,1.47,4.63,4.63,0,0,0,2.27,1,11.15,11.15,0,0,0,8.12-3.34,32,32,0,0,1,3.09-2.48c1.5-1.11,2.63-1.67,3.39-1.67.55,0,.82.37.82,1.11a4.22,4.22,0,0,1-1.39,2.43A15.41,15.41,0,0,1,535.1,273c-.76.75-2.06,1.86-3.91,3.35-1.72,1.08-3.22,2-4.53,2.88a10.83,10.83,0,0,1-5.86,1.27,12.28,12.28,0,0,1-4.21-.71,9.81,9.81,0,0,0-2.88-.71,40.72,40.72,0,0,0-5.87.45,21.34,21.34,0,0,1-5.65.16q-3.3,0-7-3.65a12.43,12.43,0,0,1-2.36-2.63c-.69-1-1.37-2-2.06-2.84-1-.74-1.95-1.48-3-2.22a7.46,7.46,0,0,1-2.36-2.74,26.67,26.67,0,0,1-1.44-8.9v-8a16.68,16.68,0,0,1,1.44-7.7,13,13,0,0,0,1.49-2.78,17.3,17.3,0,0,1,1.59-3.09q1.33-2.43,3.19-5.46a27,27,0,0,1,4.11-5.27,63.12,63.12,0,0,0,8.13-10l2.77-1.92a56.33,56.33,0,0,0,5-3.85,6.09,6.09,0,0,1,5.66-1.62"/><path class="cls-4" d="M517.41,207a62.18,62.18,0,0,0,6.32-.3,10.35,10.35,0,0,0,5.71-2.74,15.9,15.9,0,0,0,3-3.64c1.41-2,2.39-3,2.94-3,.75,0,1.13.27,1.13.81a12.22,12.22,0,0,1-1.44,5.42,15,15,0,0,0-1.65,5.41c-.75,3.65-.75,6.58,0,8.81,0,.2.17,1.11.52,2.73,0,.75-.28,1.12-.83,1.12a3.18,3.18,0,0,1-2.26-1.22,15.7,15.7,0,0,0-2-1.82,8,8,0,0,0-5.87-2.23,9.61,9.61,0,0,0-5.09,1.57,9.49,9.49,0,0,1-5.09,1.57,21.46,21.46,0,0,0-5,1.92,26.7,26.7,0,0,0-4.47,6c-1.34,2.39-2.45,4.54-3.34,6.43a12.37,12.37,0,0,0-1,5.46c-.07,2.57-.1,4.69-.1,6.38a40.69,40.69,0,0,0,.51,6.08,15.31,15.31,0,0,0,.31,3.13c.21,1,.38,1.89.51,2.64,0,1.48.19,2.41.57,2.78a9.94,9.94,0,0,1,1.39,2q1.44,3,3,3.85l4.32,2.23a17.79,17.79,0,0,0,4.42,2.22,23.13,23.13,0,0,1,4.63,2.23,14.26,14.26,0,0,0,2,1.47,4.63,4.63,0,0,0,2.27,1,11.15,11.15,0,0,0,8.12-3.34,32,32,0,0,1,3.09-2.48c1.5-1.11,2.63-1.67,3.39-1.67.55,0,.82.37.82,1.11a4.22,4.22,0,0,1-1.39,2.43A15.41,15.41,0,0,1,535.1,273c-.76.75-2.06,1.86-3.91,3.35-1.72,1.08-3.22,2-4.53,2.88a10.83,10.83,0,0,1-5.86,1.27,12.28,12.28,0,0,1-4.21-.71,9.81,9.81,0,0,0-2.88-.71,40.72,40.72,0,0,0-5.87.45,21.34,21.34,0,0,1-5.65.16q-3.3,0-7-3.65a12.43,12.43,0,0,1-2.36-2.63c-.69-1-1.37-2-2.06-2.84-1-.74-1.95-1.48-3-2.22a7.46,7.46,0,0,1-2.36-2.74,26.67,26.67,0,0,1-1.44-8.9v-8a16.68,16.68,0,0,1,1.44-7.7,13,13,0,0,0,1.49-2.78,17.3,17.3,0,0,1,1.59-3.09q1.33-2.43,3.19-5.46a27,27,0,0,1,4.11-5.27,63.12,63.12,0,0,0,8.13-10l2.77-1.92a56.33,56.33,0,0,0,5-3.85A6.09,6.09,0,0,1,517.41,207Z"/><path class="cls-3" d="M594.85,210.85a26.46,26.46,0,0,1-8.59.81q-4.37-.32-8.28-.31a6.6,6.6,0,0,1-2-.25,5.55,5.55,0,0,0-1.65-.25,5.33,5.33,0,0,0-2.31.7,6.06,6.06,0,0,1-1.7.71c-.55.34-1.1,1.62-1.65,3.85a26.42,26.42,0,0,0-2,8.81q0,6.08,3.39,6.07a20.57,20.57,0,0,0,4.17-1.92,13.69,13.69,0,0,1,5.91-1.93,15.17,15.17,0,0,1,9.57,3c.75.54,1.83,1.42,3.24,2.63s2.11,2.37,2.11,3.45a9.69,9.69,0,0,1-.88,4.3,22.23,22.23,0,0,0-1.39,3.49q-1.44,4.35-3.91,4.35c-1.71,0-2.39-.43-2.05-1.31a2.89,2.89,0,0,1,2.31-1.12c.93,0,1.39-.84,1.39-2.53q0-4.45-6.17-4.45a14.37,14.37,0,0,0-3.91.61q-2.88,0-8.43.5a16.35,16.35,0,0,0-2.42.15,10.8,10.8,0,0,1-1.8.16,32.26,32.26,0,0,0-1.85,2.88,6.48,6.48,0,0,0-1,3.19,18.59,18.59,0,0,0,.57,4.3,17.41,17.41,0,0,1,.56,3.5c-.13,1.41-.2,3.71-.2,6.88,0,.95.6,1.5,1.8,1.67a20.74,20.74,0,0,0,2.62.25,29,29,0,0,0,6.32-.71,26.67,26.67,0,0,1,5.51-.7,13,13,0,0,1,5.5.86,16.13,16.13,0,0,0,5.5,1.06q4.74,0,9.46-4.66,1.14-1.11.72-5.82t1.85-4.71c.76,0,1.32.88,1.7,2.64a21.25,21.25,0,0,1,.57,3.44,17,17,0,0,1-1.29,7.49,21.86,21.86,0,0,1-3.55,5,21.9,21.9,0,0,0-4,5,5.81,5.81,0,0,1-5.24,3,29.52,29.52,0,0,1-4.89-.41,29.48,29.48,0,0,0-4.88-.4H567.9A50.78,50.78,0,0,1,555,272.5c-.56-.2-1.53-.49-2.94-.86s-2.38-.66-2.93-.86a20.76,20.76,0,0,0-2.41.15,21.06,21.06,0,0,1-2.42.15q-1.65,0-1.65-1.11c0-1.49,1.31-2.26,3.91-2.33s4.22-.68,4.83-1.82A32.53,32.53,0,0,0,553,254.48a14.45,14.45,0,0,0-.82-4.66,22.33,22.33,0,0,1-1.13-5.57,11.29,11.29,0,0,1,.82-3.84A21.47,21.47,0,0,0,553,236a30.53,30.53,0,0,1,.41-4.55,30.41,30.41,0,0,0,.41-4.76,68.2,68.2,0,0,0-.51-10c-.41-2.23-.69-4.15-.82-5.77s-1.44-2.8-3.71-3.34a9.79,9.79,0,0,0-3.49-.41c-1.24.07-1.75-.44-1.54-1.52,0-.2.59-.57,1.79-1.11a7.61,7.61,0,0,1,2.94-.81,6,6,0,0,1,3,.71,7.12,7.12,0,0,0,3.5.71h3.39a30.59,30.59,0,0,0,6.17-.71,55.06,55.06,0,0,0,5.86-1.52,53.38,53.38,0,0,0,6-1.11,37.41,37.41,0,0,1,6.16-1.12,43.22,43.22,0,0,0,6.43-.55c2.44-.38,4.13-1.1,5.09-2.18a35.89,35.89,0,0,1,2.94-4c1.4-1.76,2.85-2.63,4.36-2.63.9,0,1.34.27,1.34.81a18.5,18.5,0,0,1-.67,2.53c-.44,1.48-.67,2.29-.67,2.43q-2,3.95-2.26,4.76a11.92,11.92,0,0,0-1,2.63,23.86,23.86,0,0,1-.72,2.33,8.8,8.8,0,0,1-2.46,4.15"/><path class="cls-4" d="M594.85,210.85a26.46,26.46,0,0,1-8.59.81q-4.37-.32-8.28-.31a6.6,6.6,0,0,1-2-.25,5.55,5.55,0,0,0-1.65-.25,5.33,5.33,0,0,0-2.31.7,6.06,6.06,0,0,1-1.7.71c-.55.34-1.1,1.62-1.65,3.85a26.42,26.42,0,0,0-2,8.81q0,6.08,3.39,6.07a20.57,20.57,0,0,0,4.17-1.92,13.69,13.69,0,0,1,5.91-1.93,15.17,15.17,0,0,1,9.57,3c.75.54,1.83,1.42,3.24,2.63s2.11,2.37,2.11,3.45a9.69,9.69,0,0,1-.88,4.3,22.23,22.23,0,0,0-1.39,3.49q-1.44,4.35-3.91,4.35c-1.71,0-2.39-.43-2.05-1.31a2.89,2.89,0,0,1,2.31-1.12c.93,0,1.39-.84,1.39-2.53q0-4.45-6.17-4.45a14.37,14.37,0,0,0-3.91.61q-2.88,0-8.43.5a16.35,16.35,0,0,0-2.42.15,10.8,10.8,0,0,1-1.8.16,32.26,32.26,0,0,0-1.85,2.88,6.48,6.48,0,0,0-1,3.19,18.59,18.59,0,0,0,.57,4.3,17.41,17.41,0,0,1,.56,3.5c-.13,1.41-.2,3.71-.2,6.88,0,.95.6,1.5,1.8,1.67a20.74,20.74,0,0,0,2.62.25,29,29,0,0,0,6.32-.71,26.67,26.67,0,0,1,5.51-.7,13,13,0,0,1,5.5.86,16.13,16.13,0,0,0,5.5,1.06q4.74,0,9.46-4.66,1.14-1.11.72-5.82t1.85-4.71c.76,0,1.32.88,1.7,2.64a21.25,21.25,0,0,1,.57,3.44,17,17,0,0,1-1.29,7.49,21.86,21.86,0,0,1-3.55,5,21.9,21.9,0,0,0-4,5,5.81,5.81,0,0,1-5.24,3,29.52,29.52,0,0,1-4.89-.41,29.48,29.48,0,0,0-4.88-.4H567.9A50.78,50.78,0,0,1,555,272.5c-.56-.2-1.53-.49-2.94-.86s-2.38-.66-2.93-.86a20.76,20.76,0,0,0-2.41.15,21.06,21.06,0,0,1-2.42.15q-1.65,0-1.65-1.11c0-1.49,1.31-2.26,3.91-2.33s4.22-.68,4.83-1.82A32.53,32.53,0,0,0,553,254.48a14.45,14.45,0,0,0-.82-4.66,22.33,22.33,0,0,1-1.13-5.57,11.29,11.29,0,0,1,.82-3.84A21.47,21.47,0,0,0,553,236a30.53,30.53,0,0,1,.41-4.55,30.41,30.41,0,0,0,.41-4.76,68.2,68.2,0,0,0-.51-10c-.41-2.23-.69-4.15-.82-5.77s-1.44-2.8-3.71-3.34a9.79,9.79,0,0,0-3.49-.41c-1.24.07-1.75-.44-1.54-1.52,0-.2.59-.57,1.79-1.11a7.61,7.61,0,0,1,2.94-.81,6,6,0,0,1,3,.71,7.12,7.12,0,0,0,3.5.71h3.39a30.59,30.59,0,0,0,6.17-.71,55.06,55.06,0,0,0,5.86-1.52,53.38,53.38,0,0,0,6-1.11,37.41,37.41,0,0,1,6.16-1.12,43.22,43.22,0,0,0,6.43-.55c2.44-.38,4.13-1.1,5.09-2.18a35.89,35.89,0,0,1,2.94-4c1.4-1.76,2.85-2.63,4.36-2.63.9,0,1.34.27,1.34.81a18.5,18.5,0,0,1-.67,2.53c-.44,1.48-.67,2.29-.67,2.43q-2,3.95-2.26,4.76a11.92,11.92,0,0,0-1,2.63,23.86,23.86,0,0,1-.72,2.33A8.8,8.8,0,0,1,594.85,210.85Z"/><path class="cls-5" d="M287.27,293.58a3.22,3.22,0,0,0-1.39,2.52,3.08,3.08,0,0,0,1,2.45c.69.6,1.32,1.19,1.91,1.78a5,5,0,0,0,2.26,1.23c.72.21,1.37.38,1.93.52a5.42,5.42,0,0,0,2,.05l4.63.31a5,5,0,0,0,1.91-.44,5.27,5.27,0,0,1,2.06-.44c.72,0,1.53,0,2.42.08a6.75,6.75,0,0,0,2.22-.18c.65-.21,2-.52,3.94-.93a24.07,24.07,0,0,1,4.2-.62h2a21,21,0,0,1,7.41,1.76c3,1.16,5.17,2.07,6.65,2.73.58.37,1.65.94,3.19,1.7s2.56,1.27,3,1.54a11.93,11.93,0,0,1,2.66,3,10.28,10.28,0,0,1,1.26,2.44c.48,1,.21,1.45-.83,1.45a2.91,2.91,0,0,1-1.44-.57c-2.71,1.3-4.35,2.73-4.92,4.27a56.17,56.17,0,0,1-2.81,6.14,2.32,2.32,0,0,1-1,1.1,2.44,2.44,0,0,0-1,1.42c-.48,1-1,2.06-1.55,3.09a15.59,15.59,0,0,1-2.11,2.6,10,10,0,0,1-2.42,2c-1.38,0-2.25.43-2.63,1.29a15.56,15.56,0,0,0,1.19,3.83,13.48,13.48,0,0,1,1,4.31,10,10,0,0,0,1.28,4.14c.76,1.36,1.41,2.47,2,3.33.65,1.13,1.29,2.28,1.91,3.45a12.61,12.61,0,0,0,2.16,3c.38.48.73.95,1.06,1.41a7.12,7.12,0,0,0,1.36,1.42,5.81,5.81,0,0,0,2.5,1.83c.57.08.85.61.85,1.57a8.79,8.79,0,0,1,1.42,1.31,2.9,2.9,0,0,0,2.24.65,10.71,10.71,0,0,0,3.94-.78,2.69,2.69,0,0,0,2-2.62,3.72,3.72,0,0,0-.49-1.55c-.32-.65-.67-1-1-1-1.24,0-1.86-.14-1.86-.41.21-.58.78-.88,1.7-.88h1.29c.83,0,1.53.62,2.11,1.86.07.27.18.83.34,1.67a12.37,12.37,0,0,1,.23,1.73q0,2.52-3.25,4.2a12.92,12.92,0,0,1-5.77,1.67h-1.13a19.5,19.5,0,0,1-3.53-.49l-3.22-.64a8.14,8.14,0,0,1-3.09-1.47,8.39,8.39,0,0,0-2-1.47,8.27,8.27,0,0,1-4.17-5,9.85,9.85,0,0,0-2.32-4.46c-1.68-1.3-2.45-1.82-2.32-1.54a25,25,0,0,0-1.08-2.94c-.34-1-.68-2-1-3a30.79,30.79,0,0,1-.93-3.12,23.15,23.15,0,0,1-.61-3.29,24.48,24.48,0,0,0-.62-3.3,2.31,2.31,0,0,0-2.91-1.62c-1.36.32-2.31.06-2.86-.8.07-.28.71-.67,1.93-1.19a14.5,14.5,0,0,0,2.4-1.18,6.18,6.18,0,0,0,1.85-1.39,6.85,6.85,0,0,1,2.37-1.45,9.84,9.84,0,0,0,1.83-1.31q1.26-1,1.83-1.62a4.35,4.35,0,0,0,1.05-2.29c.06-.71.08-1.73.08-3.07a4.31,4.31,0,0,1,.85-1.88,4.45,4.45,0,0,0,.85-2.34v-1a1.16,1.16,0,0,0-.2-.78.81.81,0,0,1-.21-.61,5.21,5.21,0,0,1,1.26-3,5.25,5.25,0,0,0,1.26-3.06v-.47q0-1.55-3.09-3.09a11.88,11.88,0,0,0-4.79-1.54h-4.64c-1.51,0-2.38.4-2.62,1.21s-.5,1.76-.78,2.86a23.59,23.59,0,0,1-1,2.91c-.41,1-.77,1.84-1.08,2.6A74.37,74.37,0,0,0,306.13,329c0,1.41,0,2.84.12,4.28s.13,2.73.13,3.86v4.23c-.17.92-.32,1.83-.46,2.73a16.91,16.91,0,0,0-.21,2.62q0,7.58,3.66,8c2.44.29,3.66.85,3.66,1.67s-.67,1.15-2,.88l-4.22-.42a12.46,12.46,0,0,0-4.77.91c-1.49.6-3,1.14-4.51,1.62a24.56,24.56,0,0,0-3.94,1.54,9.61,9.61,0,0,1-3.79,1.14,9.13,9.13,0,0,1-2.6-.36,19.71,19.71,0,0,0-2-.52c-.28,0-.67-.38-1.19-1.13s-.55-1.17-.1-1.24a5.11,5.11,0,0,1,1.42.34,6.32,6.32,0,0,0,2,.33c.76,0,1.58,0,2.47,0a2.23,2.23,0,0,0,2-1.34,2.32,2.32,0,0,1,1.08-1.13,16.86,16.86,0,0,0,1.6-1q1.29-.72,2.53-3.51a7.48,7.48,0,0,0,.87-3.45v-3.71a45.52,45.52,0,0,0-.36-5.51,13.3,13.3,0,0,1,.21-5c.37-1.51.73-3,1.05-4.58a24.82,24.82,0,0,0,.49-5.15l-1.29-19.94a14.08,14.08,0,0,0-2.13-.16h-2.19a1.73,1.73,0,0,0-1.29.42,1.22,1.22,0,0,1-.83.41,7.42,7.42,0,0,1-3-1.34,11.11,11.11,0,0,1-2.58-1.91,11.3,11.3,0,0,1-2.06-2.34,5.52,5.52,0,0,1-1.34-2.86,2.4,2.4,0,0,1,.49-1.73,2.94,2.94,0,0,0,.49-2c-.11-.38.48-.73,1.75-1.06a13.11,13.11,0,0,1,2.73-.49q1.29,0,1.29,1.14c0,.27-.65.41-2,.41"/><path class="cls-6" d="M287.27,293.58a3.22,3.22,0,0,0-1.39,2.52,3.08,3.08,0,0,0,1,2.45c.69.6,1.32,1.19,1.91,1.78a5,5,0,0,0,2.26,1.23c.72.21,1.37.38,1.93.52a5.42,5.42,0,0,0,2,.05l4.63.31a5,5,0,0,0,1.91-.44,5.27,5.27,0,0,1,2.06-.44c.72,0,1.53,0,2.42.08a6.75,6.75,0,0,0,2.22-.18c.65-.21,2-.52,3.94-.93a24.07,24.07,0,0,1,4.2-.62h2a21,21,0,0,1,7.41,1.76c3,1.16,5.17,2.07,6.65,2.73.58.37,1.65.94,3.19,1.7s2.56,1.27,3,1.54a11.93,11.93,0,0,1,2.66,3,10.28,10.28,0,0,1,1.26,2.44c.48,1,.21,1.45-.83,1.45a2.91,2.91,0,0,1-1.44-.57c-2.71,1.3-4.35,2.73-4.92,4.27a56.17,56.17,0,0,1-2.81,6.14,2.32,2.32,0,0,1-1,1.1,2.44,2.44,0,0,0-1,1.42c-.48,1-1,2.06-1.55,3.09a15.59,15.59,0,0,1-2.11,2.6,10,10,0,0,1-2.42,2c-1.38,0-2.25.43-2.63,1.29a15.56,15.56,0,0,0,1.19,3.83,13.48,13.48,0,0,1,1,4.31,10,10,0,0,0,1.28,4.14c.76,1.36,1.41,2.47,2,3.33.65,1.13,1.29,2.28,1.91,3.45a12.61,12.61,0,0,0,2.16,3c.38.48.73.95,1.06,1.41a7.12,7.12,0,0,0,1.36,1.42,5.81,5.81,0,0,0,2.5,1.83c.57.08.85.61.85,1.57a8.79,8.79,0,0,1,1.42,1.31,2.9,2.9,0,0,0,2.24.65,10.71,10.71,0,0,0,3.94-.78,2.69,2.69,0,0,0,2-2.62,3.72,3.72,0,0,0-.49-1.55c-.32-.65-.67-1-1-1-1.24,0-1.86-.14-1.86-.41.21-.58.78-.88,1.7-.88h1.29c.83,0,1.53.62,2.11,1.86.07.27.18.83.34,1.67a12.37,12.37,0,0,1,.23,1.73q0,2.52-3.25,4.2a12.92,12.92,0,0,1-5.77,1.67h-1.13a19.5,19.5,0,0,1-3.53-.49l-3.22-.64a8.14,8.14,0,0,1-3.09-1.47,8.39,8.39,0,0,0-2-1.47,8.27,8.27,0,0,1-4.17-5,9.85,9.85,0,0,0-2.32-4.46c-1.68-1.3-2.45-1.82-2.32-1.54a25,25,0,0,0-1.08-2.94c-.34-1-.68-2-1-3a30.79,30.79,0,0,1-.93-3.12,23.15,23.15,0,0,1-.61-3.29,24.48,24.48,0,0,0-.62-3.3,2.31,2.31,0,0,0-2.91-1.62c-1.36.32-2.31.06-2.86-.8.07-.28.71-.67,1.93-1.19a14.5,14.5,0,0,0,2.4-1.18,6.18,6.18,0,0,0,1.85-1.39,6.85,6.85,0,0,1,2.37-1.45,9.84,9.84,0,0,0,1.83-1.31q1.26-1,1.83-1.62a4.35,4.35,0,0,0,1.05-2.29c.06-.71.08-1.73.08-3.07a4.31,4.31,0,0,1,.85-1.88,4.45,4.45,0,0,0,.85-2.34v-1a1.16,1.16,0,0,0-.2-.78.81.81,0,0,1-.21-.61,5.21,5.21,0,0,1,1.26-3,5.25,5.25,0,0,0,1.26-3.06v-.47q0-1.55-3.09-3.09a11.88,11.88,0,0,0-4.79-1.54h-4.64c-1.51,0-2.38.4-2.62,1.21s-.5,1.76-.78,2.86a23.59,23.59,0,0,1-1,2.91c-.41,1-.77,1.84-1.08,2.6A74.37,74.37,0,0,0,306.13,329c0,1.41,0,2.84.12,4.28s.13,2.73.13,3.86v4.23c-.17.92-.32,1.83-.46,2.73a16.91,16.91,0,0,0-.21,2.62q0,7.58,3.66,8c2.44.29,3.66.85,3.66,1.67s-.67,1.15-2,.88l-4.22-.42a12.46,12.46,0,0,0-4.77.91c-1.49.6-3,1.14-4.51,1.62a24.56,24.56,0,0,0-3.94,1.54,9.61,9.61,0,0,1-3.79,1.14,9.13,9.13,0,0,1-2.6-.36,19.71,19.71,0,0,0-2-.52c-.28,0-.67-.38-1.19-1.13s-.55-1.17-.1-1.24a5.11,5.11,0,0,1,1.42.34,6.32,6.32,0,0,0,2,.33c.76,0,1.58,0,2.47,0a2.23,2.23,0,0,0,2-1.34,2.32,2.32,0,0,1,1.08-1.13,16.86,16.86,0,0,0,1.6-1q1.29-.72,2.53-3.51a7.48,7.48,0,0,0,.87-3.45v-3.71a45.52,45.52,0,0,0-.36-5.51,13.3,13.3,0,0,1,.21-5c.37-1.51.73-3,1.05-4.58a24.82,24.82,0,0,0,.49-5.15l-1.29-19.94a14.08,14.08,0,0,0-2.13-.16h-2.19a1.73,1.73,0,0,0-1.29.42,1.22,1.22,0,0,1-.83.41,7.42,7.42,0,0,1-3-1.34,11.11,11.11,0,0,1-2.58-1.91,11.3,11.3,0,0,1-2.06-2.34,5.52,5.52,0,0,1-1.34-2.86,2.4,2.4,0,0,1,.49-1.73,2.94,2.94,0,0,0,.49-2c-.11-.38.48-.73,1.75-1.06a13.11,13.11,0,0,1,2.73-.49q1.29,0,1.29,1.14C289.23,293.44,288.58,293.58,287.27,293.58Z"/><path class="cls-5" d="M372.69,319.59a13,13,0,0,1-4.3.42c-1.46-.11-2.85-.16-4.15-.16a3.14,3.14,0,0,1-1-.13,2.92,2.92,0,0,0-.82-.13,2.69,2.69,0,0,0-1.16.37,3.26,3.26,0,0,1-.85.36c-.28.17-.55.82-.83,1.95a13.68,13.68,0,0,0-1,4.49c0,2.06.57,3.09,1.7,3.09a10.23,10.23,0,0,0,2.09-1,6.83,6.83,0,0,1,3-1,7.48,7.48,0,0,1,4.79,1.54c.38.28.92.73,1.63,1.34a2.53,2.53,0,0,1,1,1.76,4.89,4.89,0,0,1-.44,2.19,11.52,11.52,0,0,0-.69,1.77c-.48,1.48-1.13,2.22-2,2.22s-1.2-.23-1-.67a1.44,1.44,0,0,1,1.16-.57c.46,0,.7-.43.7-1.29,0-1.51-1-2.26-3.1-2.26a7,7,0,0,0-2,.31c-1,0-2.37.08-4.23.25a8.14,8.14,0,0,0-1.21.08,6.11,6.11,0,0,1-.9.08q-.4.57-.93,1.47a3.36,3.36,0,0,0-.51,1.62,9.66,9.66,0,0,0,.28,2.19,8.66,8.66,0,0,1,.28,1.78c-.06.72-.1,1.89-.1,3.5,0,.48.3.76.9.85a9.74,9.74,0,0,0,1.32.13,14.52,14.52,0,0,0,3.16-.36,13.22,13.22,0,0,1,2.76-.36,6.46,6.46,0,0,1,2.76.43,7.77,7.77,0,0,0,2.75.55,6.83,6.83,0,0,0,4.74-2.37q.57-.57.36-3c-.13-1.59.18-2.39.93-2.39.38,0,.66.44.85,1.34a10.67,10.67,0,0,1,.28,1.75,8.81,8.81,0,0,1-.64,3.81,11.14,11.14,0,0,1-1.78,2.53,11,11,0,0,0-2,2.52,2.9,2.9,0,0,1-2.62,1.55,14.3,14.3,0,0,1-2.45-.21,14.3,14.3,0,0,0-2.45-.21h-7.88a25,25,0,0,1-6.49-.82c-.28-.1-.77-.25-1.47-.44s-1.19-.33-1.47-.44a10.52,10.52,0,0,0-1.21.08,10.52,10.52,0,0,1-1.21.08c-.55,0-.82-.19-.82-.57,0-.75.65-1.15,2-1.18s2.12-.35,2.43-.93a16.85,16.85,0,0,0,.82-5.77,7.58,7.58,0,0,0-.41-2.37,11.7,11.7,0,0,1-.57-2.83,6,6,0,0,1,.41-2,10.49,10.49,0,0,0,.57-2.27,15.39,15.39,0,0,1,.21-2.32,17,17,0,0,0,.2-2.42,33.77,33.77,0,0,0-.26-5.1c-.2-1.13-.34-2.11-.41-2.94s-.72-1.42-1.85-1.7a5.07,5.07,0,0,0-1.75-.2c-.62,0-.88-.22-.78-.77q0-.17.9-.57a3.74,3.74,0,0,1,1.47-.41,2.92,2.92,0,0,1,1.5.36,3.49,3.49,0,0,0,1.75.36h1.7a15,15,0,0,0,3.09-.36,26.57,26.57,0,0,0,2.94-.78,24.14,24.14,0,0,0,3-.56,18.39,18.39,0,0,1,3.1-.57,21.24,21.24,0,0,0,3.22-.28,4.21,4.21,0,0,0,2.55-1.11,18.14,18.14,0,0,1,1.46-2.06,2.92,2.92,0,0,1,2.19-1.34c.45,0,.67.14.67.41a9.29,9.29,0,0,1-.33,1.29,11.5,11.5,0,0,0-.34,1.24c-.65,1.34-1,2.14-1.13,2.42a5.51,5.51,0,0,0-.51,1.34,11.57,11.57,0,0,1-.37,1.18,4.37,4.37,0,0,1-1.23,2.11"/><path class="cls-6" d="M372.69,319.59a13,13,0,0,1-4.3.42c-1.46-.11-2.85-.16-4.15-.16a3.14,3.14,0,0,1-1-.13,2.92,2.92,0,0,0-.82-.13,2.69,2.69,0,0,0-1.16.37,3.26,3.26,0,0,1-.85.36c-.28.17-.55.82-.83,1.95a13.68,13.68,0,0,0-1,4.49c0,2.06.57,3.09,1.7,3.09a10.23,10.23,0,0,0,2.09-1,6.83,6.83,0,0,1,3-1,7.48,7.48,0,0,1,4.79,1.54c.38.28.92.73,1.63,1.34a2.53,2.53,0,0,1,1,1.76,4.89,4.89,0,0,1-.44,2.19,11.52,11.52,0,0,0-.69,1.77c-.48,1.48-1.13,2.22-2,2.22s-1.2-.23-1-.67a1.44,1.44,0,0,1,1.16-.57c.46,0,.7-.43.7-1.29,0-1.51-1-2.26-3.1-2.26a7,7,0,0,0-2,.31c-1,0-2.37.08-4.23.25a8.14,8.14,0,0,0-1.21.08,6.11,6.11,0,0,1-.9.08q-.4.57-.93,1.47a3.36,3.36,0,0,0-.51,1.62,9.66,9.66,0,0,0,.28,2.19,8.66,8.66,0,0,1,.28,1.78c-.06.72-.1,1.89-.1,3.5,0,.48.3.76.9.85a9.74,9.74,0,0,0,1.32.13,14.52,14.52,0,0,0,3.16-.36,13.22,13.22,0,0,1,2.76-.36,6.46,6.46,0,0,1,2.76.43,7.77,7.77,0,0,0,2.75.55,6.83,6.83,0,0,0,4.74-2.37q.57-.57.36-3c-.13-1.59.18-2.39.93-2.39.38,0,.66.44.85,1.34a10.67,10.67,0,0,1,.28,1.75,8.81,8.81,0,0,1-.64,3.81,11.14,11.14,0,0,1-1.78,2.53,11,11,0,0,0-2,2.52,2.9,2.9,0,0,1-2.62,1.55,14.3,14.3,0,0,1-2.45-.21,14.3,14.3,0,0,0-2.45-.21h-7.88a25,25,0,0,1-6.49-.82c-.28-.1-.77-.25-1.47-.44s-1.19-.33-1.47-.44a10.52,10.52,0,0,0-1.21.08,10.52,10.52,0,0,1-1.21.08c-.55,0-.82-.19-.82-.57,0-.75.65-1.15,2-1.18s2.12-.35,2.43-.93a16.85,16.85,0,0,0,.82-5.77,7.58,7.58,0,0,0-.41-2.37,11.7,11.7,0,0,1-.57-2.83,6,6,0,0,1,.41-2,10.49,10.49,0,0,0,.57-2.27,15.39,15.39,0,0,1,.21-2.32,17,17,0,0,0,.2-2.42,33.77,33.77,0,0,0-.26-5.1c-.2-1.13-.34-2.11-.41-2.94s-.72-1.42-1.85-1.7a5.07,5.07,0,0,0-1.75-.2c-.62,0-.88-.22-.78-.77q0-.17.9-.57a3.74,3.74,0,0,1,1.47-.41,2.92,2.92,0,0,1,1.5.36,3.49,3.49,0,0,0,1.75.36h1.7a15,15,0,0,0,3.09-.36,26.57,26.57,0,0,0,2.94-.78,24.14,24.14,0,0,0,3-.56,18.39,18.39,0,0,1,3.1-.57,21.24,21.24,0,0,0,3.22-.28,4.21,4.21,0,0,0,2.55-1.11,18.14,18.14,0,0,1,1.46-2.06,2.92,2.92,0,0,1,2.19-1.34c.45,0,.67.14.67.41a9.29,9.29,0,0,1-.33,1.29,11.5,11.5,0,0,0-.34,1.24c-.65,1.34-1,2.14-1.13,2.42a5.51,5.51,0,0,0-.51,1.34,11.57,11.57,0,0,1-.37,1.18A4.37,4.37,0,0,1,372.69,319.59Z"/><path class="cls-5" d="M401,341.54a6.8,6.8,0,0,1,.77-2c.52-1,.91-1.78,1.19-2.26a8.32,8.32,0,0,0,.87-2.12c.28-.92.5-1.71.67-2.37q.46-2.1,1-5.1c.11-.82.25-1.65.44-2.49a13.14,13.14,0,0,0,.28-2.86v-1.24c0-.28-.35-.53-1.05-.77a5.66,5.66,0,0,0-1.73-.36q-.87-.83-.87-1.14c0-.27.51-.55,1.54-.82a6.46,6.46,0,0,1,1.93.33,6.2,6.2,0,0,0,1.88.34,11.46,11.46,0,0,0,2.27.31,8.18,8.18,0,0,0,3.07-.57l2.8-1.13a20.48,20.48,0,0,0,2.68-1,3,3,0,0,0,.65-.13,3.32,3.32,0,0,1,.9-.13c.65.17,1,.53,1,1.08,0,.38-.59.83-1.75,1.34s-1.89.83-2.17.93l-1.9,1.34a6.48,6.48,0,0,0-1.6,1.34c-.31.75-.6,1.51-.88,2.27s-.55,1.46-.82,2.11L411,328.61c-.32.65-.62,1.31-.9,2s-.67,1.24-1.08,2.08a8.06,8.06,0,0,0-.77,2.3,15.44,15.44,0,0,1-.7,2.37,16.24,16.24,0,0,0-.69,2.26c-.49,1.41-1,3-1.58,4.64a15.93,15.93,0,0,0-.85,5v.41c0,.58.55,1.08,1.63,1.49s1.62.91,1.62,1.5-.09,1-.26,1a6.88,6.88,0,0,1-1.7-.21,5.71,5.71,0,0,0-1.39-.2c-.58,0-1.13,0-1.65.05s-1,0-1.44,0a33.42,33.42,0,0,0-3.53.2,30.89,30.89,0,0,1-3.53.21,8,8,0,0,0-3.5,1.44,4.14,4.14,0,0,0-.7.54,1.8,1.8,0,0,1-.74.44c-.28.1-.77.32-1.47.65s-1.06.16-1.06-.49a1.86,1.86,0,0,1,1.26-1.65,10.49,10.49,0,0,0,2.14-1.34,8,8,0,0,0,2.53-3.76,7.59,7.59,0,0,0,.64-2.55,25.08,25.08,0,0,1,.34-2.81c.1-1,.18-2,.23-3s.07-2.06.07-3.09a9.32,9.32,0,0,0-.23-2.21,9,9,0,0,1-.23-2,11.21,11.21,0,0,0-.46-2,6.66,6.66,0,0,1-.36-2,17.17,17.17,0,0,0-.9-3.81c-.43-1.14-.84-2.25-1.22-3.35a14.39,14.39,0,0,0-1.26-2.34,18,18,0,0,1-1.26-2.3,18.36,18.36,0,0,0-2-2.68,3.48,3.48,0,0,0-1.29-1c-.55-.3-1.06-.6-1.54-.87a3.53,3.53,0,0,0-1.8-.41H380a3.27,3.27,0,0,0-1.34.25q-.72.47-.72,2c0,.55.4.83,1.21.83s1.21.38,1.21,1.13c-1,.1-2.19.25-3.68.44s-2.24-.39-2.24-1.73v-1.65a3.1,3.1,0,0,1,1.13-2.42,5.32,5.32,0,0,1,2.27-1.23,12.84,12.84,0,0,0,2.65-.8,6.94,6.94,0,0,1,2.81-.49,7.22,7.22,0,0,1,4.79,2,14.27,14.27,0,0,1,1.39,1.7c.38.55.81,1.11,1.29,1.7.93,1.68,1.66,2.93,2.21,3.76q.57,1,1.14,2a11.1,11.1,0,0,0,1.29,1.8c.55,1.13,1.24,2.45,2.08,3.94a19.88,19.88,0,0,1,1.83,4.25,44.35,44.35,0,0,1,1,5,5.93,5.93,0,0,1,.15,1.47,4.61,4.61,0,0,0,.16,1.36,15.49,15.49,0,0,1,.26,2.79q0,.72.15.15"/><path class="cls-6" d="M401,341.54a6.8,6.8,0,0,1,.77-2c.52-1,.91-1.78,1.19-2.26a8.32,8.32,0,0,0,.87-2.12c.28-.92.5-1.71.67-2.37q.46-2.1,1-5.1c.11-.82.25-1.65.44-2.49a13.14,13.14,0,0,0,.28-2.86v-1.24c0-.28-.35-.53-1.05-.77a5.66,5.66,0,0,0-1.73-.36q-.87-.83-.87-1.14c0-.27.51-.55,1.54-.82a6.46,6.46,0,0,1,1.93.33,6.2,6.2,0,0,0,1.88.34,11.46,11.46,0,0,0,2.27.31,8.18,8.18,0,0,0,3.07-.57l2.8-1.13a20.48,20.48,0,0,0,2.68-1,3,3,0,0,0,.65-.13,3.32,3.32,0,0,1,.9-.13c.65.17,1,.53,1,1.08,0,.38-.59.83-1.75,1.34s-1.89.83-2.17.93l-1.9,1.34a6.48,6.48,0,0,0-1.6,1.34c-.31.75-.6,1.51-.88,2.27s-.55,1.46-.82,2.11L411,328.61c-.32.65-.62,1.31-.9,2s-.67,1.24-1.08,2.08a8.06,8.06,0,0,0-.77,2.3,15.44,15.44,0,0,1-.7,2.37,16.24,16.24,0,0,0-.69,2.26c-.49,1.41-1,3-1.58,4.64a15.93,15.93,0,0,0-.85,5v.41c0,.58.55,1.08,1.63,1.49s1.62.91,1.62,1.5-.09,1-.26,1a6.88,6.88,0,0,1-1.7-.21,5.71,5.71,0,0,0-1.39-.2c-.58,0-1.13,0-1.65.05s-1,0-1.44,0a33.42,33.42,0,0,0-3.53.2,30.89,30.89,0,0,1-3.53.21,8,8,0,0,0-3.5,1.44,4.14,4.14,0,0,0-.7.54,1.8,1.8,0,0,1-.74.44c-.28.1-.77.32-1.47.65s-1.06.16-1.06-.49a1.86,1.86,0,0,1,1.26-1.65,10.49,10.49,0,0,0,2.14-1.34,8,8,0,0,0,2.53-3.76,7.59,7.59,0,0,0,.64-2.55,25.08,25.08,0,0,1,.34-2.81c.1-1,.18-2,.23-3s.07-2.06.07-3.09a9.32,9.32,0,0,0-.23-2.21,9,9,0,0,1-.23-2,11.21,11.21,0,0,0-.46-2,6.66,6.66,0,0,1-.36-2,17.17,17.17,0,0,0-.9-3.81c-.43-1.14-.84-2.25-1.22-3.35a14.39,14.39,0,0,0-1.26-2.34,18,18,0,0,1-1.26-2.3,18.36,18.36,0,0,0-2-2.68,3.48,3.48,0,0,0-1.29-1c-.55-.3-1.06-.6-1.54-.87a3.53,3.53,0,0,0-1.8-.41H380a3.27,3.27,0,0,0-1.34.25q-.72.47-.72,2c0,.55.4.83,1.21.83s1.21.38,1.21,1.13c-1,.1-2.19.25-3.68.44s-2.24-.39-2.24-1.73v-1.65a3.1,3.1,0,0,1,1.13-2.42,5.32,5.32,0,0,1,2.27-1.23,12.84,12.84,0,0,0,2.65-.8,6.94,6.94,0,0,1,2.81-.49,7.22,7.22,0,0,1,4.79,2,14.27,14.27,0,0,1,1.39,1.7c.38.55.81,1.11,1.29,1.7.93,1.68,1.66,2.93,2.21,3.76q.57,1,1.14,2a11.1,11.1,0,0,0,1.29,1.8c.55,1.13,1.24,2.45,2.08,3.94a19.88,19.88,0,0,1,1.83,4.25,44.35,44.35,0,0,1,1,5,5.93,5.93,0,0,1,.15,1.47,4.61,4.61,0,0,0,.16,1.36,15.49,15.49,0,0,1,.26,2.79Q400.82,342.11,401,341.54Z"/><path class="cls-5" d="M447.34,323.1l-1.55,6.59a14,14,0,0,0,0,4.82c.28,2.15.47,3.65.57,4.51a12.5,12.5,0,0,0,1.13,4.07,3.68,3.68,0,0,0,1.24,1.54,3.49,3.49,0,0,0,1.13.41c.48.11.72.35.72.73-.2.92-1,1.25-2.42,1l-.67-.15a4.69,4.69,0,0,1-3.65-2.11,3.07,3.07,0,0,1-1.16-1.73,3.66,3.66,0,0,0-.85-1.62q-2.54,3.76-4.85,7.7T428.74,352l-.41-.16a8.86,8.86,0,0,1-3.71-1.26,10.41,10.41,0,0,1-2.73-2.09c-1.51-1.33-2.13-3.64-1.86-6.9a23.07,23.07,0,0,1,.72-4.09,8.26,8.26,0,0,1,2.12-3,13.25,13.25,0,0,1,5.77-3.35,15.65,15.65,0,0,0,3.14-1.21c.79-.43,1.8-.92,3-1.46a22,22,0,0,0,2.73-1.7,6.22,6.22,0,0,0,2.06-2.94c.76-1.79,1-3,.67-3.5a15.1,15.1,0,0,0-2.78-2.12q-1.54-.72-3.33-1.65a11.21,11.21,0,0,0-3.73-1.18l-.26-.15a4.89,4.89,0,0,0-4.53,2.11q-1.8,2.67-.75,3.09a1.42,1.42,0,0,1,.9,1.7c-.1.48-.56.91-1.39,1.29q-1-.57-1.83-1.14c-.56-.37-.76-1.13-.59-2.26a5.85,5.85,0,0,1,1.7-3.25,12.73,12.73,0,0,1,2.68-2.37,12.6,12.6,0,0,0,2.76-1.85q1-1,4-.57h.57a17.76,17.76,0,0,1,4.35,1.78q2.4,1.31,4.09,2.19a7.17,7.17,0,0,0,2.45.9,3.45,3.45,0,0,1,2,.9,7,7,0,0,1,.72,4.64ZM440,335c.17-1.72-.29-2.66-1.39-2.84h-.46q-2.37-.3-3.43,3.09c-.7,2.27-1.33,3.35-1.88,3.25h-.15c-.48,0-.77-.31-.85-.93s-.27-1-.54-1H431c-2.55-.31-3.95.72-4.23,3.09a2,2,0,0,0,.08.54,2,2,0,0,1,.08.44q.82,1.4,1.05,1.68a14.09,14.09,0,0,0,1.47,1.26,14.09,14.09,0,0,1,1.39,1.29,1.54,1.54,0,0,1,.67.69.94.94,0,0,0,.62.54,47.55,47.55,0,0,1,3.92-4.89c.58-.58,1.32-1.39,2.21-2.42a6.44,6.44,0,0,0,1.6-2.94Z"/><path class="cls-6" d="M447.34,323.1l-1.55,6.59a14,14,0,0,0,0,4.82c.28,2.15.47,3.65.57,4.51a12.5,12.5,0,0,0,1.13,4.07,3.68,3.68,0,0,0,1.24,1.54,3.49,3.49,0,0,0,1.13.41c.48.11.72.35.72.73-.2.92-1,1.25-2.42,1l-.67-.15a4.69,4.69,0,0,1-3.65-2.11,3.07,3.07,0,0,1-1.16-1.73,3.66,3.66,0,0,0-.85-1.62q-2.54,3.76-4.85,7.7T428.74,352l-.41-.16a8.86,8.86,0,0,1-3.71-1.26,10.41,10.41,0,0,1-2.73-2.09c-1.51-1.33-2.13-3.64-1.86-6.9a23.07,23.07,0,0,1,.72-4.09,8.26,8.26,0,0,1,2.12-3,13.25,13.25,0,0,1,5.77-3.35,15.65,15.65,0,0,0,3.14-1.21c.79-.43,1.8-.92,3-1.46a22,22,0,0,0,2.73-1.7,6.22,6.22,0,0,0,2.06-2.94c.76-1.79,1-3,.67-3.5a15.1,15.1,0,0,0-2.78-2.12q-1.54-.72-3.33-1.65a11.21,11.21,0,0,0-3.73-1.18l-.26-.15a4.89,4.89,0,0,0-4.53,2.11q-1.8,2.67-.75,3.09a1.42,1.42,0,0,1,.9,1.7c-.1.48-.56.91-1.39,1.29q-1-.57-1.83-1.14c-.56-.37-.76-1.13-.59-2.26a5.85,5.85,0,0,1,1.7-3.25,12.73,12.73,0,0,1,2.68-2.37,12.6,12.6,0,0,0,2.76-1.85q1-1,4-.57h.57a17.76,17.76,0,0,1,4.35,1.78q2.4,1.31,4.09,2.19a7.17,7.17,0,0,0,2.45.9,3.45,3.45,0,0,1,2,.9,7,7,0,0,1,.72,4.64ZM440,335c.17-1.72-.29-2.66-1.39-2.84h-.46q-2.37-.3-3.43,3.09c-.7,2.27-1.33,3.35-1.88,3.25h-.15c-.48,0-.77-.31-.85-.93s-.27-1-.54-1H431c-2.55-.31-3.95.72-4.23,3.09a2,2,0,0,0,.08.54,2,2,0,0,1,.08.44q.82,1.4,1.05,1.68a14.09,14.09,0,0,0,1.47,1.26,14.09,14.09,0,0,1,1.39,1.29,1.54,1.54,0,0,1,.67.69.94.94,0,0,0,.62.54,47.55,47.55,0,0,1,3.92-4.89c.58-.58,1.32-1.39,2.21-2.42a6.44,6.44,0,0,0,1.6-2.94Z"/><path class="cls-5" d="M488.45,312.69l-.1,1.55c0,.48.07,1.34.2,2.6a8.17,8.17,0,0,0,.47,2.34,7.66,7.66,0,0,1,0,2.09,3.58,3.58,0,0,0,.29,2,15.77,15.77,0,0,0,.41,1.68,15,15,0,0,1,.41,1.67,19.62,19.62,0,0,0,.64,3.61c.33,1.16.63,2.31.91,3.45a14.23,14.23,0,0,1,.36,2.55,11.87,11.87,0,0,0,.36,2.5,20.19,20.19,0,0,0,.82,4.94,10.33,10.33,0,0,0,1.55,4.07,3.62,3.62,0,0,0,1.13,1.7,9.88,9.88,0,0,0,1,.7q.69.44.69.54c0,.58-.35.94-1.06,1.08a8.91,8.91,0,0,1-1.62.21c-.55,0-1.18,0-1.88-.08s-1.24-.08-1.62-.08a5.84,5.84,0,0,0-1.55.16,9.14,9.14,0,0,0-1.44.56c-1.1.38-2,.71-2.63,1a8.57,8.57,0,0,1-1.65.44c-.89.19-1.34.13-1.34-.18,0-.07.22-.25.65-.54a6.32,6.32,0,0,1,.9-.54q.57-.46,1.44-1.29a3.24,3.24,0,0,0,.39-1,2.58,2.58,0,0,1,.44-1,5.25,5.25,0,0,0,1-1.85V347a7.05,7.05,0,0,0-.29-2,17.08,17.08,0,0,1-.44-2c-.06-.28-.15-.6-.25-1a4.08,4.08,0,0,1-.16-1.14q-.15-.41-.36-.9a2.35,2.35,0,0,1-.2-.95,32.36,32.36,0,0,0-1-3.84,14.17,14.17,0,0,0-1.33-3.48q-.17.46-.36,1a2.06,2.06,0,0,0-.21.74c-.93,2.06-1.68,3.61-2.27,4.64a31.73,31.73,0,0,1-1.54,3.09,23.83,23.83,0,0,0-1.24,3.25,22.81,22.81,0,0,0-.8,2.75,14.13,14.13,0,0,1-.75,2.45,2.07,2.07,0,0,1-.51.77,3.05,3.05,0,0,0-.52.67,17.82,17.82,0,0,1-1.95,2.73c-1,1.27-1.88,1.91-2.53,1.91-.27,0-.41-.19-.41-.57a2,2,0,0,1,.9-1.85,2.43,2.43,0,0,0,.9-2.22v-.56A18.77,18.77,0,0,0,471,345.2q-1.26-3.66-1.83-5.05a12.2,12.2,0,0,1-.46-1.21,12.4,12.4,0,0,1-.36-1.37,7.79,7.79,0,0,1-1.14-2.31c-.27-.9-.54-1.76-.82-2.58-.21-.38-.42-.78-.64-1.21a2.56,2.56,0,0,1-.34-1.21q-.3,0-.39,1.41c0,.95-.07,1.47-.07,1.58a22.75,22.75,0,0,0-.57,2.78c-.17,1-.35,2-.54,2.83s-.37,1.7-.54,2.53a5.33,5.33,0,0,0-.16,2.83c0,.82.1,1.24.29,1.24a2.84,2.84,0,0,1,1.11.56c.2.21.49.54.87,1s.65.69.83.69c1,.38,1.54.9,1.54,1.55,0,.38-.32.57-1,.57a2.33,2.33,0,0,1-.9-.21l-.8-.36A19,19,0,0,0,462,349a13.32,13.32,0,0,1-2.94-.31A9,9,0,0,0,457,349a14.59,14.59,0,0,0-1.59.43c-.59.17-1.34.42-2.27.75s-1.44.35-1.55.08a2.79,2.79,0,0,1,1.81-1.24c.48-.21.84-.35,1.08-.44a4.78,4.78,0,0,0,1-.59c.86-.65,1.61-2,2.27-4.07a12.72,12.72,0,0,0,.56-2.58,17.49,17.49,0,0,1,.57-2.73,37.69,37.69,0,0,0,.82-5.51c.31-2,.61-3.78.88-5.46.17-.86.38-1.71.62-2.55s.44-1.74.62-2.7c0-.45,0-.91-.06-1.37a4.6,4.6,0,0,1,.21-1.57,5.18,5.18,0,0,1,.16-1.34,13.26,13.26,0,0,0,.25-1.44,24,24,0,0,1,.36-2.76c.24-1.46.64-2.19,1.19-2.19.27,0,.76,1,1.47,3s1.16,3.24,1.36,3.79a17,17,0,0,0,.62,1.67c.24.57.5,1.15.77,1.73a30.36,30.36,0,0,0,1.86,3.07A11,11,0,0,1,471.6,328a8.38,8.38,0,0,0,.39,2,11.79,11.79,0,0,0,.75,1.7q1.08,2.79,1.95,5.2c0,.28,0,.42.08.42s.11.08.18.25a11.79,11.79,0,0,0,1.75-3.42,22.45,22.45,0,0,1,1.24-3c.28-1.23.52-2.41.75-3.52a10.73,10.73,0,0,1,1.47-3.53c.58-1,1.15-2.11,1.7-3.22s1.11-2.19,1.7-3.22c.27-.48.55-1,.82-1.5a9.8,9.8,0,0,1,1-1.49,12.26,12.26,0,0,1,1.21-1.32c.7-.7,1.16-1.05,1.36-1.05s.35.14.52.41"/><path class="cls-6" d="M488.45,312.69l-.1,1.55c0,.48.07,1.34.2,2.6a8.17,8.17,0,0,0,.47,2.34,7.66,7.66,0,0,1,0,2.09,3.58,3.58,0,0,0,.29,2,15.77,15.77,0,0,0,.41,1.68,15,15,0,0,1,.41,1.67,19.62,19.62,0,0,0,.64,3.61c.33,1.16.63,2.31.91,3.45a14.23,14.23,0,0,1,.36,2.55,11.87,11.87,0,0,0,.36,2.5,20.19,20.19,0,0,0,.82,4.94,10.33,10.33,0,0,0,1.55,4.07,3.62,3.62,0,0,0,1.13,1.7,9.88,9.88,0,0,0,1,.7q.69.44.69.54c0,.58-.35.94-1.06,1.08a8.91,8.91,0,0,1-1.62.21c-.55,0-1.18,0-1.88-.08s-1.24-.08-1.62-.08a5.84,5.84,0,0,0-1.55.16,9.14,9.14,0,0,0-1.44.56c-1.1.38-2,.71-2.63,1a8.57,8.57,0,0,1-1.65.44c-.89.19-1.34.13-1.34-.18,0-.07.22-.25.65-.54a6.32,6.32,0,0,1,.9-.54q.57-.46,1.44-1.29a3.24,3.24,0,0,0,.39-1,2.58,2.58,0,0,1,.44-1,5.25,5.25,0,0,0,1-1.85V347a7.05,7.05,0,0,0-.29-2,17.08,17.08,0,0,1-.44-2c-.06-.28-.15-.6-.25-1a4.08,4.08,0,0,1-.16-1.14q-.15-.41-.36-.9a2.35,2.35,0,0,1-.2-.95,32.36,32.36,0,0,0-1-3.84,14.17,14.17,0,0,0-1.33-3.48q-.17.46-.36,1a2.06,2.06,0,0,0-.21.74c-.93,2.06-1.68,3.61-2.27,4.64a31.73,31.73,0,0,1-1.54,3.09,23.83,23.83,0,0,0-1.24,3.25,22.81,22.81,0,0,0-.8,2.75,14.13,14.13,0,0,1-.75,2.45,2.07,2.07,0,0,1-.51.77,3.05,3.05,0,0,0-.52.67,17.82,17.82,0,0,1-1.95,2.73c-1,1.27-1.88,1.91-2.53,1.91-.27,0-.41-.19-.41-.57a2,2,0,0,1,.9-1.85,2.43,2.43,0,0,0,.9-2.22v-.56A18.77,18.77,0,0,0,471,345.2q-1.26-3.66-1.83-5.05a12.2,12.2,0,0,1-.46-1.21,12.4,12.4,0,0,1-.36-1.37,7.79,7.79,0,0,1-1.14-2.31c-.27-.9-.54-1.76-.82-2.58-.21-.38-.42-.78-.64-1.21a2.56,2.56,0,0,1-.34-1.21q-.3,0-.39,1.41c0,.95-.07,1.47-.07,1.58a22.75,22.75,0,0,0-.57,2.78c-.17,1-.35,2-.54,2.83s-.37,1.7-.54,2.53a5.33,5.33,0,0,0-.16,2.83c0,.82.1,1.24.29,1.24a2.84,2.84,0,0,1,1.11.56c.2.21.49.54.87,1s.65.69.83.69c1,.38,1.54.9,1.54,1.55,0,.38-.32.57-1,.57a2.33,2.33,0,0,1-.9-.21l-.8-.36A19,19,0,0,0,462,349a13.32,13.32,0,0,1-2.94-.31A9,9,0,0,0,457,349a14.59,14.59,0,0,0-1.59.43c-.59.17-1.34.42-2.27.75s-1.44.35-1.55.08a2.79,2.79,0,0,1,1.81-1.24c.48-.21.84-.35,1.08-.44a4.78,4.78,0,0,0,1-.59c.86-.65,1.61-2,2.27-4.07a12.72,12.72,0,0,0,.56-2.58,17.49,17.49,0,0,1,.57-2.73,37.69,37.69,0,0,0,.82-5.51c.31-2,.61-3.78.88-5.46.17-.86.38-1.71.62-2.55s.44-1.74.62-2.7c0-.45,0-.91-.06-1.37a4.6,4.6,0,0,1,.21-1.57,5.18,5.18,0,0,1,.16-1.34,13.26,13.26,0,0,0,.25-1.44,24,24,0,0,1,.36-2.76c.24-1.46.64-2.19,1.19-2.19.27,0,.76,1,1.47,3s1.16,3.24,1.36,3.79a17,17,0,0,0,.62,1.67c.24.57.5,1.15.77,1.73a30.36,30.36,0,0,0,1.86,3.07A11,11,0,0,1,471.6,328a8.38,8.38,0,0,0,.39,2,11.79,11.79,0,0,0,.75,1.7q1.08,2.79,1.95,5.2c0,.28,0,.42.08.42s.11.08.18.25a11.79,11.79,0,0,0,1.75-3.42,22.45,22.45,0,0,1,1.24-3c.28-1.23.52-2.41.75-3.52a10.73,10.73,0,0,1,1.47-3.53c.58-1,1.15-2.11,1.7-3.22s1.11-2.19,1.7-3.22c.27-.48.55-1,.82-1.5a9.8,9.8,0,0,1,1-1.49,12.26,12.26,0,0,1,1.21-1.32c.7-.7,1.16-1.05,1.36-1.05S488.28,312.42,488.45,312.69Z"/><path class="cls-5" d="M498.91,313.41a.64.64,0,0,1,.72-.72,3,3,0,0,1,1.08.41,2.77,2.77,0,0,0,1.19.41,6.72,6.72,0,0,0,1.26.31,7.19,7.19,0,0,0,1.26.16,7.77,7.77,0,0,0,2.55-.44,10.38,10.38,0,0,1,2.5-.54,10.15,10.15,0,0,0,2.63-.36,11,11,0,0,1,2.88-.36,18.47,18.47,0,0,1,5.26.69c1.54.47,3,1,4.43,1.58.58.27,1.27.61,2.06,1a5.19,5.19,0,0,1,1.75,1.34c.55.75,1,1.36,1.26,1.82a5.24,5.24,0,0,1,.44,2.55v.26c0,.11-.38.35-1.13.72a2.42,2.42,0,0,0-1.14.83,6.62,6.62,0,0,0-.62,1.49,2.31,2.31,0,0,1-.67,1.19,7.55,7.55,0,0,1-.9,1.05l-.9.9a2.57,2.57,0,0,0-.93,1.27,4.09,4.09,0,0,1-.61,1.26,3.55,3.55,0,0,1-.73,1.13,5.6,5.6,0,0,0-.61.52,2.37,2.37,0,0,1-.52.36,11.83,11.83,0,0,1-1.11,1l-1.1.82a12.43,12.43,0,0,1-1.21.77c-.43.24-.79.45-1.06.62A4.58,4.58,0,0,1,514,336.6a3.11,3.11,0,0,1-1.65-.49,2.67,2.67,0,0,0-1.44-.49c-.31,0-.72,0-1.23.07s-.78.13-.78.24v1.95c0,.38,0,1,.08,1.91s.08,1.48.08,1.75a13.74,13.74,0,0,0,.2,1.83,6.36,6.36,0,0,0,.36,1.52c0,.1.24,1.24.72,3.4a2.63,2.63,0,0,1-.15.85,1.24,1.24,0,0,0,0,.85c0,.38.26.73.77,1.06l1.19.74a4.7,4.7,0,0,0,1.05.78c.43.24.89.46,1.37.67a9.65,9.65,0,0,0,3.22.54c1.6.08,2.86.13,3.79.13a.27.27,0,0,1,.31.3c0,.28-.48.49-1.42.62a16.93,16.93,0,0,1-1.83.21h-2.83a15.75,15.75,0,0,1-3.1-.57,2.58,2.58,0,0,1-1.33-.36,3.78,3.78,0,0,0-1.19-.46,19.34,19.34,0,0,1-2.4-.72,9.77,9.77,0,0,0-3.37-.57c-.93.1-1.84.18-2.73.23s-1.82.08-2.78.08c-.07,0-.16-.16-.26-.46a3.44,3.44,0,0,1,1.11-.42,2.57,2.57,0,0,0,1.16-.56,9.88,9.88,0,0,0,1-2.22c.27-1.24.6-3.07,1-5.51a16.36,16.36,0,0,0,.21-2,10.41,10.41,0,0,1,.36-2.19l.41-1.23a4.87,4.87,0,0,0,.16-1.34,13.75,13.75,0,0,1,.1-1.65,20.24,20.24,0,0,0,.16-3.09,17,17,0,0,0-.13-1.88,16.09,16.09,0,0,1-.13-2v-8.76l.1-3.09a2.63,2.63,0,0,1-.69-.25,2.6,2.6,0,0,1-.55-.42,4.57,4.57,0,0,0-1.54-.56,3.73,3.73,0,0,1-1.7-.31,1.16,1.16,0,0,1-.72-1.24m11.85,3.35a13.83,13.83,0,0,1-.16,2.27,12.84,12.84,0,0,0-.15,2,36.1,36.1,0,0,0-.26,4v2.22a14,14,0,0,1-.15,2,5.14,5.14,0,0,1-.49,1.8,4.22,4.22,0,0,0-.49,1.55,3,3,0,0,0,2.47.56,13.29,13.29,0,0,0,2.58-.41c.48-.21,1.09-.5,1.85-.88a7.64,7.64,0,0,0,2.27-3.19,5.31,5.31,0,0,1,.82-1.65,10.25,10.25,0,0,0,1-1.6,4,4,0,0,0,.52-.9,9.21,9.21,0,0,1,.46-.95,2.35,2.35,0,0,0,.88-1.65v-.31a4.16,4.16,0,0,0-.44-1,3,3,0,0,1-.44-1.29,7.6,7.6,0,0,0-1.39-1.8l-2.06-1.13a5.32,5.32,0,0,0-2.48-.72H514c-1.61,0-2.69.38-3.24,1.13"/><path class="cls-6" d="M498.91,313.41a.64.64,0,0,1,.72-.72,3,3,0,0,1,1.08.41,2.77,2.77,0,0,0,1.19.41,6.72,6.72,0,0,0,1.26.31,7.19,7.19,0,0,0,1.26.16,7.77,7.77,0,0,0,2.55-.44,10.38,10.38,0,0,1,2.5-.54,10.15,10.15,0,0,0,2.63-.36,11,11,0,0,1,2.88-.36,18.47,18.47,0,0,1,5.26.69c1.54.47,3,1,4.43,1.58.58.27,1.27.61,2.06,1a5.19,5.19,0,0,1,1.75,1.34c.55.75,1,1.36,1.26,1.82a5.24,5.24,0,0,1,.44,2.55v.26c0,.11-.38.35-1.13.72a2.42,2.42,0,0,0-1.14.83,6.62,6.62,0,0,0-.62,1.49,2.31,2.31,0,0,1-.67,1.19,7.55,7.55,0,0,1-.9,1.05l-.9.9a2.57,2.57,0,0,0-.93,1.27,4.09,4.09,0,0,1-.61,1.26,3.55,3.55,0,0,1-.73,1.13,5.6,5.6,0,0,0-.61.52,2.37,2.37,0,0,1-.52.36,11.83,11.83,0,0,1-1.11,1l-1.1.82a12.43,12.43,0,0,1-1.21.77c-.43.24-.79.45-1.06.62A4.58,4.58,0,0,1,514,336.6a3.11,3.11,0,0,1-1.65-.49,2.67,2.67,0,0,0-1.44-.49c-.31,0-.72,0-1.23.07s-.78.13-.78.24v1.95c0,.38,0,1,.08,1.91s.08,1.48.08,1.75a13.74,13.74,0,0,0,.2,1.83,6.36,6.36,0,0,0,.36,1.52c0,.1.24,1.24.72,3.4a2.63,2.63,0,0,1-.15.85,1.24,1.24,0,0,0,0,.85c0,.38.26.73.77,1.06l1.19.74a4.7,4.7,0,0,0,1.05.78c.43.24.89.46,1.37.67a9.65,9.65,0,0,0,3.22.54c1.6.08,2.86.13,3.79.13a.27.27,0,0,1,.31.3c0,.28-.48.49-1.42.62a16.93,16.93,0,0,1-1.83.21h-2.83a15.75,15.75,0,0,1-3.1-.57,2.58,2.58,0,0,1-1.33-.36,3.78,3.78,0,0,0-1.19-.46,19.34,19.34,0,0,1-2.4-.72,9.77,9.77,0,0,0-3.37-.57c-.93.1-1.84.18-2.73.23s-1.82.08-2.78.08c-.07,0-.16-.16-.26-.46a3.44,3.44,0,0,1,1.11-.42,2.57,2.57,0,0,0,1.16-.56,9.88,9.88,0,0,0,1-2.22c.27-1.24.6-3.07,1-5.51a16.36,16.36,0,0,0,.21-2,10.41,10.41,0,0,1,.36-2.19l.41-1.23a4.87,4.87,0,0,0,.16-1.34,13.75,13.75,0,0,1,.1-1.65,20.24,20.24,0,0,0,.16-3.09,17,17,0,0,0-.13-1.88,16.09,16.09,0,0,1-.13-2v-8.76l.1-3.09a2.63,2.63,0,0,1-.69-.25,2.6,2.6,0,0,1-.55-.42,4.57,4.57,0,0,0-1.54-.56,3.73,3.73,0,0,1-1.7-.31A1.16,1.16,0,0,1,498.91,313.41Zm11.85,3.35a13.83,13.83,0,0,1-.16,2.27,12.84,12.84,0,0,0-.15,2,36.1,36.1,0,0,0-.26,4v2.22a14,14,0,0,1-.15,2,5.14,5.14,0,0,1-.49,1.8,4.22,4.22,0,0,0-.49,1.55,3,3,0,0,0,2.47.56,13.29,13.29,0,0,0,2.58-.41c.48-.21,1.09-.5,1.85-.88a7.64,7.64,0,0,0,2.27-3.19,5.31,5.31,0,0,1,.82-1.65,10.25,10.25,0,0,0,1-1.6,4,4,0,0,0,.52-.9,9.21,9.21,0,0,1,.46-.95,2.35,2.35,0,0,0,.88-1.65v-.31a4.16,4.16,0,0,0-.44-1,3,3,0,0,1-.44-1.29,7.6,7.6,0,0,0-1.39-1.8l-2.06-1.13a5.32,5.32,0,0,0-2.48-.72H514C512.39,315.63,511.31,316,510.76,316.76Z"/><path class="cls-5" d="M558.67,319.59a13,13,0,0,1-4.3.42c-1.46-.11-2.85-.16-4.15-.16a3.19,3.19,0,0,1-1-.13,2.92,2.92,0,0,0-.82-.13,2.69,2.69,0,0,0-1.16.37,3.26,3.26,0,0,1-.85.36c-.28.17-.55.82-.83,1.95a13.68,13.68,0,0,0-1,4.49c0,2.06.57,3.09,1.7,3.09a10.23,10.23,0,0,0,2.09-1,6.83,6.83,0,0,1,3-1,7.52,7.52,0,0,1,4.8,1.54c.37.28.91.73,1.62,1.34a2.53,2.53,0,0,1,1.05,1.76,5,5,0,0,1-.43,2.19,10.65,10.65,0,0,0-.7,1.77c-.48,1.48-1.13,2.22-2,2.22s-1.2-.23-1-.67a1.44,1.44,0,0,1,1.16-.57c.46,0,.7-.43.7-1.29,0-1.51-1-2.26-3.09-2.26a7,7,0,0,0-2,.31c-1,0-2.37.08-4.23.25a8.14,8.14,0,0,0-1.21.08,5.88,5.88,0,0,1-.9.08q-.4.57-.93,1.47a3.36,3.36,0,0,0-.51,1.62,9.66,9.66,0,0,0,.28,2.19,8.85,8.85,0,0,1,.29,1.78c-.07.72-.11,1.89-.11,3.5,0,.48.3.76.9.85a9.74,9.74,0,0,0,1.32.13,14.68,14.68,0,0,0,3.17-.36,13.05,13.05,0,0,1,2.75-.36,6.46,6.46,0,0,1,2.76.43,7.82,7.82,0,0,0,2.76.55,6.83,6.83,0,0,0,4.73-2.37q.57-.57.36-3c-.13-1.59.18-2.39.93-2.39.38,0,.66.44.85,1.34a11.12,11.12,0,0,1,.29,1.75,8.79,8.79,0,0,1-.65,3.81,11.14,11.14,0,0,1-1.78,2.53,10.73,10.73,0,0,0-2,2.52,2.92,2.92,0,0,1-2.63,1.55,14.3,14.3,0,0,1-2.45-.21,14.3,14.3,0,0,0-2.45-.21h-7.88a25,25,0,0,1-6.49-.82c-.28-.1-.76-.25-1.47-.44s-1.19-.33-1.47-.44a10.66,10.66,0,0,0-1.21.08,10.52,10.52,0,0,1-1.21.08c-.55,0-.82-.19-.82-.57,0-.75.65-1.15,2-1.18s2.11-.35,2.42-.93a16.85,16.85,0,0,0,.82-5.77,7.58,7.58,0,0,0-.41-2.37,11.7,11.7,0,0,1-.57-2.83,6,6,0,0,1,.41-2,10.49,10.49,0,0,0,.57-2.27,15.39,15.39,0,0,1,.21-2.32,17,17,0,0,0,.2-2.42,35.56,35.56,0,0,0-.25-5.1q-.32-1.69-.42-2.94c-.1-.85-.72-1.42-1.85-1.7a5,5,0,0,0-1.75-.2c-.62,0-.88-.22-.78-.77,0-.11.3-.3.91-.57a3.66,3.66,0,0,1,1.46-.41,2.92,2.92,0,0,1,1.5.36,3.49,3.49,0,0,0,1.75.36h1.7a15,15,0,0,0,3.09-.36,26.57,26.57,0,0,0,2.94-.78,24.4,24.4,0,0,0,3-.56,18,18,0,0,1,3.09-.57,21.24,21.24,0,0,0,3.22-.28,4.16,4.16,0,0,0,2.55-1.11,17.27,17.27,0,0,1,1.47-2.06,2.89,2.89,0,0,1,2.18-1.34c.45,0,.67.14.67.41a9.29,9.29,0,0,1-.33,1.29c-.22.76-.34,1.17-.34,1.24-.65,1.34-1,2.14-1.13,2.42a6,6,0,0,0-.51,1.34c-.14.51-.26.91-.36,1.18a4.45,4.45,0,0,1-1.24,2.11"/><path class="cls-6" d="M558.67,319.59a13,13,0,0,1-4.3.42c-1.46-.11-2.85-.16-4.15-.16a3.19,3.19,0,0,1-1-.13,2.92,2.92,0,0,0-.82-.13,2.69,2.69,0,0,0-1.16.37,3.26,3.26,0,0,1-.85.36c-.28.17-.55.82-.83,1.95a13.68,13.68,0,0,0-1,4.49c0,2.06.57,3.09,1.7,3.09a10.23,10.23,0,0,0,2.09-1,6.83,6.83,0,0,1,3-1,7.52,7.52,0,0,1,4.8,1.54c.37.28.91.73,1.62,1.34a2.53,2.53,0,0,1,1.05,1.76,5,5,0,0,1-.43,2.19,10.65,10.65,0,0,0-.7,1.77c-.48,1.48-1.13,2.22-2,2.22s-1.2-.23-1-.67a1.44,1.44,0,0,1,1.16-.57c.46,0,.7-.43.7-1.29,0-1.51-1-2.26-3.09-2.26a7,7,0,0,0-2,.31c-1,0-2.37.08-4.23.25a8.14,8.14,0,0,0-1.21.08,5.88,5.88,0,0,1-.9.08q-.4.57-.93,1.47a3.36,3.36,0,0,0-.51,1.62,9.66,9.66,0,0,0,.28,2.19,8.85,8.85,0,0,1,.29,1.78c-.07.72-.11,1.89-.11,3.5,0,.48.3.76.9.85a9.74,9.74,0,0,0,1.32.13,14.68,14.68,0,0,0,3.17-.36,13.05,13.05,0,0,1,2.75-.36,6.46,6.46,0,0,1,2.76.43,7.82,7.82,0,0,0,2.76.55,6.83,6.83,0,0,0,4.73-2.37q.57-.57.36-3c-.13-1.59.18-2.39.93-2.39.38,0,.66.44.85,1.34a11.12,11.12,0,0,1,.29,1.75,8.79,8.79,0,0,1-.65,3.81,11.14,11.14,0,0,1-1.78,2.53,10.73,10.73,0,0,0-2,2.52,2.92,2.92,0,0,1-2.63,1.55,14.3,14.3,0,0,1-2.45-.21,14.3,14.3,0,0,0-2.45-.21h-7.88a25,25,0,0,1-6.49-.82c-.28-.1-.76-.25-1.47-.44s-1.19-.33-1.47-.44a10.66,10.66,0,0,0-1.21.08,10.52,10.52,0,0,1-1.21.08c-.55,0-.82-.19-.82-.57,0-.75.65-1.15,2-1.18s2.11-.35,2.42-.93a16.85,16.85,0,0,0,.82-5.77,7.58,7.58,0,0,0-.41-2.37,11.7,11.7,0,0,1-.57-2.83,6,6,0,0,1,.41-2,10.49,10.49,0,0,0,.57-2.27,15.39,15.39,0,0,1,.21-2.32,17,17,0,0,0,.2-2.42,35.56,35.56,0,0,0-.25-5.1q-.32-1.69-.42-2.94c-.1-.85-.72-1.42-1.85-1.7a5,5,0,0,0-1.75-.2c-.62,0-.88-.22-.78-.77,0-.11.3-.3.91-.57a3.66,3.66,0,0,1,1.46-.41,2.92,2.92,0,0,1,1.5.36,3.49,3.49,0,0,0,1.75.36h1.7a15,15,0,0,0,3.09-.36,26.57,26.57,0,0,0,2.94-.78,24.4,24.4,0,0,0,3-.56,18,18,0,0,1,3.09-.57,21.24,21.24,0,0,0,3.22-.28,4.16,4.16,0,0,0,2.55-1.11,17.27,17.27,0,0,1,1.47-2.06,2.89,2.89,0,0,1,2.18-1.34c.45,0,.67.14.67.41a9.29,9.29,0,0,1-.33,1.29c-.22.76-.34,1.17-.34,1.24-.65,1.34-1,2.14-1.13,2.42a6,6,0,0,0-.51,1.34c-.14.51-.26.91-.36,1.18A4.45,4.45,0,0,1,558.67,319.59Z"/><path class="cls-5" d="M582.16,311.71a21,21,0,0,1,6.08,1.7,23.6,23.6,0,0,1,2.68,1.39,24.59,24.59,0,0,1,4.2,3.58,40.27,40.27,0,0,1,3.27,4.56,11.74,11.74,0,0,1,1,2.91,18.42,18.42,0,0,0,.93,3,22.18,22.18,0,0,0,1.31,2.81,6.12,6.12,0,0,1,.9,2.7c0,.72-.65,1.91-1.95,3.56s-2.24,2.9-2.79,3.76c-.48.55-1,1.12-1.41,1.72s-.89,1.2-1.27,1.78a7.89,7.89,0,0,1-2.47,2.32L589.79,349a9.52,9.52,0,0,1-2.4.54,3.22,3.22,0,0,0-2.09,1,4.57,4.57,0,0,0-.74.82,5.72,5.72,0,0,1-.7.83,2.5,2.5,0,0,1-2.32.74,16.79,16.79,0,0,1-2.31-.74l-2.53-.47a16.07,16.07,0,0,0-2.83-.2h-3.79a6.48,6.48,0,0,0-3.53,1,11.82,11.82,0,0,0-1,1.27c-.41.56-.77.85-1.08.85s-.26-.19-.26-.57a2.5,2.5,0,0,1,.36-.77,2.13,2.13,0,0,0,.36-.93,3.8,3.8,0,0,1,1.08-1.13,4.46,4.46,0,0,1,1.65-.54,6.68,6.68,0,0,0,1.91-.6,6.86,6.86,0,0,0,1.47-.74c.7-.43,1.11-.78,1.21-1.06a10.39,10.39,0,0,0,.54-2.47,25.76,25.76,0,0,0,.13-2.58c0-1.41,0-2.8,0-4.17s-.06-2.75-.06-4.12a14.54,14.54,0,0,0-1-5.26,7.11,7.11,0,0,1-.56-2.63l.31-3.09a7.1,7.1,0,0,0-.21-1.72,7.66,7.66,0,0,1-.2-1.83c-.11-.28-.44-.95-1-2s-1-1.65-1.26-1.72a8.49,8.49,0,0,1-1.34-.16,3.93,3.93,0,0,1-1.19-.31,6.06,6.06,0,0,1-3.09-2.93,13.61,13.61,0,0,1-1-2.11c0-.18,0-.67-.07-1.47s.06-1.21.33-1.21.6.4,1,1.21.62,1.35.72,1.62a5.89,5.89,0,0,1,.41.77c.11.24.21.5.31.78a2.19,2.19,0,0,0,2.53,1.39,12.05,12.05,0,0,1,2.44-.26,6.93,6.93,0,0,0,2.61-.57,40.56,40.56,0,0,1,4.79-1.36,18,18,0,0,1,4.89-.34m-3.66,4.48a39.79,39.79,0,0,0,0,4.23c.09,1.41.13,2.82.13,4.22,0,.93,0,1.89.08,2.89s.07,1.9.07,2.73c0,2,0,3.9-.15,5.72a59.33,59.33,0,0,0,0,6,9.72,9.72,0,0,0,.2,1.83c.14.67.26,1.28.37,1.83a15.44,15.44,0,0,0,2.67.31c1.41,0,2.54,0,3.38.05s1.88-.68,3.12-2.16a10.76,10.76,0,0,1,1.39-1.73,9,9,0,0,0,1.39-1.83,15.38,15.38,0,0,0,1.85-4.48c.28-.75.58-1.58.9-2.47a7.39,7.39,0,0,0,.49-2.58,16.39,16.39,0,0,0-.36-3.11c-.24-1.22-.44-2.16-.62-2.81a9.68,9.68,0,0,0-1.39-2,18.15,18.15,0,0,1-1.54-2,17.94,17.94,0,0,0-3.82-3.43,8.25,8.25,0,0,0-4.63-1.77,7.53,7.53,0,0,0-3.56.56"/><path class="cls-6" d="M582.16,311.71a21,21,0,0,1,6.08,1.7,23.6,23.6,0,0,1,2.68,1.39,24.59,24.59,0,0,1,4.2,3.58,40.27,40.27,0,0,1,3.27,4.56,11.74,11.74,0,0,1,1,2.91,18.42,18.42,0,0,0,.93,3,22.18,22.18,0,0,0,1.31,2.81,6.12,6.12,0,0,1,.9,2.7c0,.72-.65,1.91-1.95,3.56s-2.24,2.9-2.79,3.76c-.48.55-1,1.12-1.41,1.72s-.89,1.2-1.27,1.78a7.89,7.89,0,0,1-2.47,2.32L589.79,349a9.52,9.52,0,0,1-2.4.54,3.22,3.22,0,0,0-2.09,1,4.57,4.57,0,0,0-.74.82,5.72,5.72,0,0,1-.7.83,2.5,2.5,0,0,1-2.32.74,16.79,16.79,0,0,1-2.31-.74l-2.53-.47a16.07,16.07,0,0,0-2.83-.2h-3.79a6.48,6.48,0,0,0-3.53,1,11.82,11.82,0,0,0-1,1.27c-.41.56-.77.85-1.08.85s-.26-.19-.26-.57a2.5,2.5,0,0,1,.36-.77,2.13,2.13,0,0,0,.36-.93,3.8,3.8,0,0,1,1.08-1.13,4.46,4.46,0,0,1,1.65-.54,6.68,6.68,0,0,0,1.91-.6,6.86,6.86,0,0,0,1.47-.74c.7-.43,1.11-.78,1.21-1.06a10.39,10.39,0,0,0,.54-2.47,25.76,25.76,0,0,0,.13-2.58c0-1.41,0-2.8,0-4.17s-.06-2.75-.06-4.12a14.54,14.54,0,0,0-1-5.26,7.11,7.11,0,0,1-.56-2.63l.31-3.09a7.1,7.1,0,0,0-.21-1.72,7.66,7.66,0,0,1-.2-1.83c-.11-.28-.44-.95-1-2s-1-1.65-1.26-1.72a8.49,8.49,0,0,1-1.34-.16,3.93,3.93,0,0,1-1.19-.31,6.06,6.06,0,0,1-3.09-2.93,13.61,13.61,0,0,1-1-2.11c0-.18,0-.67-.07-1.47s.06-1.21.33-1.21.6.4,1,1.21.62,1.35.72,1.62a5.89,5.89,0,0,1,.41.77c.11.24.21.5.31.78a2.19,2.19,0,0,0,2.53,1.39,12.05,12.05,0,0,1,2.44-.26,6.93,6.93,0,0,0,2.61-.57,40.56,40.56,0,0,1,4.79-1.36A18,18,0,0,1,582.16,311.71Zm-3.66,4.48a39.79,39.79,0,0,0,0,4.23c.09,1.41.13,2.82.13,4.22,0,.93,0,1.89.08,2.89s.07,1.9.07,2.73c0,2,0,3.9-.15,5.72a59.33,59.33,0,0,0,0,6,9.72,9.72,0,0,0,.2,1.83c.14.67.26,1.28.37,1.83a15.44,15.44,0,0,0,2.67.31c1.41,0,2.54,0,3.38.05s1.88-.68,3.12-2.16a10.76,10.76,0,0,1,1.39-1.73,9,9,0,0,0,1.39-1.83,15.38,15.38,0,0,0,1.85-4.48c.28-.75.58-1.58.9-2.47a7.39,7.39,0,0,0,.49-2.58,16.39,16.39,0,0,0-.36-3.11c-.24-1.22-.44-2.16-.62-2.81a9.68,9.68,0,0,0-1.39-2,18.15,18.15,0,0,1-1.54-2,17.94,17.94,0,0,0-3.82-3.43,8.25,8.25,0,0,0-4.63-1.77A7.53,7.53,0,0,0,578.5,316.19Z"/></g></g></g></svg>